<?xml version="1.0" encoding="utf-8"?>
<!-- Generator: Adobe Illustrator 27.5.0, SVG Export Plug-In . SVG Version: 6.00 Build 0)  -->
<svg version="1.1" id="Layer_1" xmlns="http://www.w3.org/2000/svg" xmlns:xlink="http://www.w3.org/1999/xlink" x="0px" y="0px"
	 viewBox="0 0 512 512" style="enable-background:new 0 0 512 512;" xml:space="preserve">
<style type="text/css">
	.st0{fill:#E6BD59;}
</style>
<g>
	<path class="st0" d="M221.8,127.1c-7.7,0-14,6.3-14,14s6.3,14,14,14c36.8,0,66.7,29.9,66.7,66.7c0,7.7,6.3,14,14,14s14-6.3,14-14
		C316.5,169.5,274,127.1,221.8,127.1z"/>
	<path class="st0" d="M440.7,366.8L369.9,296c11.3-22.4,17.6-47.6,17.6-74.3c0-91.4-74.4-165.8-165.8-165.8
		C130.4,56,56,130.4,56,221.8s74.4,165.8,165.8,165.8c26.7,0,51.9-6.4,74.3-17.6l70.8,70.8c9.9,9.9,23,15.3,36.9,15.3c0,0,0,0,0,0
		c13.9,0,27.1-5.4,36.9-15.3C461.1,420.3,461.1,387.2,440.7,366.8z M84,221.8C84,145.8,145.8,84,221.8,84
		c76,0,137.8,61.8,137.8,137.8s-61.8,137.8-137.8,137.8C145.8,359.5,84,297.7,84,221.8z M420.9,420.9c-4.6,4.6-10.7,7.1-17.1,7.1
		c0,0,0,0,0,0c-6.5,0-12.5-2.5-17.1-7.1l-66.1-66.1c13-9.7,24.6-21.2,34.2-34.2l66.1,66.1c4.6,4.6,7.1,10.7,7.1,17.1
		S425.5,416.3,420.9,420.9z"/>
</g>
</svg>
