<?xml version="1.0" encoding="utf-8"?>
<!-- Generator: Adobe Illustrator 27.5.0, SVG Export Plug-In . SVG Version: 6.00 Build 0)  -->
<svg version="1.1" id="Layer_1" xmlns="http://www.w3.org/2000/svg" xmlns:xlink="http://www.w3.org/1999/xlink" x="0px" y="0px"
	 viewBox="0 0 512 512" style="enable-background:new 0 0 512 512;" xml:space="preserve">
<style type="text/css">
	.st0{fill:#E6BD59;}
</style>
<g>
	<path class="st0" d="M432.4,135.5H168.9l-25.7-77.2c-2-6.1-7.8-10.3-14.2-10.3H70.7c-8.3,0-15,6.7-15,15c0,8.3,6.7,15,15,15h47.4
		l25.5,76.5L178,304.3c1.6,6.8,7.6,11.7,14.7,11.7h205.1c7,0,13.1-4.8,14.6-11.7L447,153.8c0.3-1.1,0.4-2.2,0.4-3.4
		C447.4,142.2,440.6,135.5,432.4,135.5z M385.8,286H204.6l-27.7-120.5h236.6L385.8,286z"/>
	<path class="st0" d="M222,335c-31.7,0-57.5,25.7-57.5,57.5c0,31.7,25.7,57.5,57.5,57.5c31.7,0,57.4-25.7,57.5-57.5
		C279.5,360.8,253.7,335,222,335z M249.5,392.5c0,15.2-12.3,27.5-27.5,27.5c-15.2,0-27.5-12.3-27.5-27.5c0-15.2,12.3-27.5,27.5-27.5
		C237.2,365.1,249.5,377.4,249.5,392.5C249.5,392.5,249.5,392.5,249.5,392.5z"/>
	<path class="st0" d="M368.4,335c-31.7,0-57.5,25.7-57.5,57.5c0,31.7,25.7,57.5,57.5,57.5c31.7,0,57.4-25.7,57.5-57.5
		C425.9,360.8,400.2,335,368.4,335z M395.9,392.5c0,15.2-12.3,27.5-27.5,27.5c-15.2,0-27.5-12.3-27.5-27.5
		c0-15.2,12.3-27.5,27.5-27.5C383.6,365.1,395.9,377.4,395.9,392.5C395.9,392.5,395.9,392.5,395.9,392.5z"/>
</g>
</svg>
