<?xml version="1.0" encoding="utf-8"?>
<!-- Generator: Adobe Illustrator 27.5.0, SVG Export Plug-In . SVG Version: 6.00 Build 0)  -->
<svg version="1.1" id="Layer_1" xmlns="http://www.w3.org/2000/svg" xmlns:xlink="http://www.w3.org/1999/xlink" x="0px" y="0px"
	 viewBox="0 0 512 512" style="enable-background:new 0 0 512 512;" xml:space="preserve">
<style type="text/css">
	.st0{fill:#E6BD59;}
</style>
<g id="_1">
	<g>
		<path class="st0" d="M256,453.6c-3.8,0-7.5-1.5-10.3-4.2L138.5,342.1c-64.8-64.8-64.8-170.2,0-235c0,0,0,0,0,0c0,0,0,0,0,0
			c64.8-64.8,170.2-64.8,235,0l0,0c64.8,64.8,64.8,170.2,0,235L266.3,449.3C263.5,452.1,259.9,453.6,256,453.6z M159,127.5
			c-53.5,53.5-53.5,140.5,0,194l97,97l97-97c53.5-53.5,53.5-140.5,0-194l0,0C299.5,74,212.5,74,159,127.5
			C159,127.5,159,127.5,159,127.5z"/>
	</g>
	<g>
		<path class="st0" d="M256,323.2c-54.4,0-98.7-44.3-98.7-98.7c0-54.4,44.3-98.7,98.7-98.7s98.7,44.3,98.7,98.7
			C354.7,279,310.4,323.2,256,323.2z M256,154.8c-38.4,0-69.7,31.3-69.7,69.7s31.3,69.7,69.7,69.7c38.4,0,69.7-31.3,69.7-69.7
			S294.4,154.8,256,154.8z"/>
	</g>
</g>
</svg>
