<?xml version="1.0" encoding="utf-8"?>
<!-- Generator: Adobe Illustrator 27.5.0, SVG Export Plug-In . SVG Version: 6.00 Build 0)  -->
<svg version="1.1" id="Layer_1" xmlns="http://www.w3.org/2000/svg" xmlns:xlink="http://www.w3.org/1999/xlink" x="0px" y="0px"
	 viewBox="0 0 512 512" style="enable-background:new 0 0 512 512;" xml:space="preserve">
<style type="text/css">
	.st0{fill:#E6BD59;}
</style>
<g>
	<path class="st0" d="M382.3,70H129.7C96.7,70,70,96.7,70,129.7v164.2c0,32.9,26.7,59.7,59.7,59.7H273l73.3,83.7
		c2.7,3,6.5,4.7,10.5,4.7c7.6,0,13.9-6.2,13.9-13.9v-74.7h11.7c32.9,0,59.7-26.7,59.7-59.7V129.7C442,96.7,415.3,70,382.3,70z
		 M414.2,293.7c0,17.6-14.3,31.9-31.9,31.9h-25.5c-7.7,0-13.9,6.2-13.9,13.9v51.6l-53.1-60.7c-2.7-3-6.5-4.7-10.5-4.7H129.7
		c-17.6,0-31.9-14.3-31.9-31.9V129.7c0-17.6,14.3-31.9,31.9-31.9h252.6c17.7,0,31.9,14.3,31.9,31.9V293.7z"/>
	<path class="st0" d="M214.2,252.5c-0.1-0.5-0.2-0.9-0.3-1.1c0-0.1,0-0.1-0.1-0.1c-0.2-1-0.6-1.8-0.8-2.3c-0.1-0.1-0.1-0.3-0.2-0.4
		c-0.1-0.3-0.2-0.5-0.4-0.8l-0.3-0.6c-0.2-0.3-0.4-0.8-0.8-1.2l-0.8-1.1c-0.3-0.4-0.6-0.7-0.8-1c0,0-0.1-0.1-0.1-0.1
		c-0.6-0.8-1.3-1.3-1.8-1.7l-1.1-0.8c-0.5-0.4-1.2-0.8-1.8-1.1c-0.4-0.2-0.9-0.4-1.5-0.7c-0.4-0.2-0.9-0.4-1.4-0.5
		c-0.7-0.3-1.4-0.4-1.9-0.5c-0.4-0.1-0.7-0.1-1.1-0.2c-0.1,0-0.2,0-0.3,0l-0.4-0.1c-5.4-0.5-10.6,1.3-14.3,5
		c-0.7,0.6-1.2,1.2-1.5,1.6l-0.8,1.1c-0.4,0.5-0.8,1.2-1.1,1.8c-0.2,0.4-0.4,0.9-0.7,1.5c-0.2,0.4-0.4,0.9-0.5,1.4
		c-0.3,0.7-0.4,1.4-0.5,1.9c-0.1,0.5-0.2,1.1-0.3,1.8c-0.1,0.7-0.1,1.3-0.1,1.8c0,0.4,0,0.7,0.1,1.1c0,0.1,0,0.2,0,0.3
		c0,1,0.2,2,0.3,2.3c0.1,0.2,0.1,0.5,0.2,0.7c0,0.1,0.1,0.2,0.1,0.4c0.2,1,0.6,1.8,0.8,2.3c0.1,0.1,0.1,0.3,0.2,0.4
		c0.1,0.3,0.2,0.5,0.4,0.8l0.3,0.6c0.2,0.3,0.4,0.8,0.8,1.2l0.8,1.1c0.3,0.4,0.6,0.7,0.9,1c0,0,0.1,0.1,0.1,0.1l0.3,0.4
		c3.4,3.4,7.9,5.3,12.8,5.3c0.2,0,0.5,0,0.6,0l0.4,0.1h0.4c0.9,0,1.6-0.1,2.2-0.3c0.5-0.1,1-0.2,1.7-0.5c0.8-0.2,1.5-0.5,1.9-0.7
		c0.1-0.1,0.3-0.1,0.4-0.2c0.3-0.1,0.5-0.2,0.8-0.4l0.6-0.3c0.3-0.2,0.8-0.4,1.2-0.8l1.1-0.8c0.5-0.4,0.9-0.8,1.3-1.2
		c0.7-0.6,1.2-1.2,1.5-1.6l0.8-1.1l0.2-0.4c0.1-0.1,0.2-0.3,0.2-0.4c0.2-0.3,0.4-0.7,0.7-1.1c0.2-0.4,0.4-0.9,0.7-1.5
		c0.2-0.4,0.4-0.9,0.5-1.4c0.3-0.7,0.4-1.3,0.5-1.8c0.1-0.4,0.1-0.8,0.2-1.1c0-0.1,0-0.2,0-0.3c0.2-0.9,0.2-1.6,0.2-2.2
		c0-0.5,0-1.1-0.1-1.8C214.4,253.6,214.3,253,214.2,252.5z"/>
	<path class="st0" d="M333.5,252.2c-0.1-0.2-0.1-0.5-0.2-0.7c0-0.1-0.1-0.2-0.1-0.4c-0.2-1-0.6-1.8-0.8-2.3
		c-0.1-0.1-0.1-0.3-0.2-0.4c-0.1-0.3-0.2-0.5-0.4-0.8l-0.3-0.6c-0.2-0.3-0.4-0.8-0.8-1.2l-0.8-1.1c-0.3-0.4-0.6-0.7-0.9-1
		c0,0-0.1-0.1-0.1-0.1c-0.6-0.8-1.3-1.3-1.8-1.7L326,241c-0.5-0.4-1.2-0.8-1.8-1.1c-0.4-0.2-0.9-0.4-1.5-0.7
		c-0.3-0.1-0.6-0.2-0.9-0.3c-0.1,0-0.1,0-0.2-0.1c-0.8-0.4-1.6-0.6-2.2-0.7c-0.4-0.1-0.7-0.1-1.1-0.2c-0.1,0-0.2,0-0.3,0l-0.4-0.1
		c-1.1-0.1-2.3-0.1-3.4,0c-1,0-1.8,0.2-2.2,0.3c-0.2,0.1-0.5,0.1-0.7,0.2c-0.1,0-0.2,0.1-0.4,0.1c-0.8,0.2-1.4,0.4-1.8,0.6l-0.6,0.2
		c-0.1,0.1-0.3,0.1-0.4,0.2c-0.3,0.1-0.5,0.2-0.8,0.4l-0.6,0.3c-0.3,0.2-0.8,0.4-1.2,0.8l-1.1,0.8c-0.4,0.3-0.7,0.6-1,0.8
		c0,0-0.1,0.1-0.1,0.1c-0.8,0.6-1.3,1.3-1.7,1.8l-0.8,1.1c-0.4,0.5-0.8,1.2-1.1,1.9c-0.2,0.4-0.4,0.9-0.7,1.5
		c-0.1,0.3-0.2,0.6-0.3,0.9c0,0.1,0,0.1-0.1,0.2c-0.3,0.7-0.5,1.4-0.6,1.9l0,0.2c-0.1,0.5-0.2,0.9-0.2,1.2c0,0.1,0,0.2,0,0.3
		c-0.2,0.9-0.2,1.6-0.2,2.2c0,0.4,0,0.8,0.1,1.2c0,0.1,0,0.2,0,0.2c0,1,0.2,2,0.3,2.3c0.1,0.2,0.1,0.5,0.2,0.7
		c0,0.1,0.1,0.2,0.1,0.4c0.2,1,0.6,1.8,0.8,2.3c0.1,0.1,0.1,0.3,0.2,0.4c0.1,0.3,0.2,0.5,0.4,0.8l0.4,0.6c0.2,0.3,0.4,0.8,0.8,1.2
		l0.8,1.1c0.3,0.4,0.7,0.9,1.3,1.5c0.5,0.6,1.1,1,1.5,1.3l1.1,0.8c0.5,0.4,1.2,0.8,1.8,1.1c0.4,0.2,0.9,0.4,1.5,0.7
		c0.4,0.2,0.9,0.4,1.4,0.5c0.7,0.3,1.4,0.4,1.9,0.5c0.4,0.1,0.7,0.1,1.1,0.2c0.1,0,0.2,0,0.3,0c0.9,0.2,1.6,0.2,2.2,0.2h1.4
		c1.1,0,2-0.2,2.4-0.3c0.2-0.1,0.5-0.1,0.8-0.2c0.1,0,0.2-0.1,0.4-0.1l0.4-0.1l0.4-0.1c0.2-0.1,0.3-0.1,0.4-0.1
		c0.3-0.1,0.6-0.2,0.9-0.3l0.3-0.1c0.1-0.1,0.3-0.1,0.4-0.2c0.3-0.1,0.5-0.2,0.8-0.4l0.6-0.3c0.3-0.2,0.8-0.4,1.2-0.8l1.1-0.8
		c0.4-0.3,0.7-0.6,1-0.9c0,0,0.1-0.1,0.1-0.1c0.8-0.6,1.3-1.3,1.7-1.8l0.8-1.1c0.4-0.5,0.8-1.2,1.2-1.9c0.2-0.4,0.4-0.9,0.7-1.5
		c0.1-0.3,0.2-0.6,0.3-0.9c0-0.1,0-0.1,0.1-0.2c0.3-0.7,0.5-1.4,0.6-1.9l0.1-0.4c0.1-0.5,0.2-1.2,0.3-2c0.1-1.1,0.1-2.2,0-3.3
		C333.8,253.4,333.6,252.5,333.5,252.2z"/>
	<path class="st0" d="M274,254.7c0-0.8-0.1-1.5-0.3-2.1l0-0.2c-0.1-0.2-0.1-0.5-0.2-0.8c0-0.1-0.1-0.2-0.1-0.4
		c-0.2-0.8-0.4-1.3-0.6-1.8l-0.2-0.6c-0.1-0.1-0.1-0.3-0.2-0.4c-0.1-0.3-0.2-0.5-0.4-0.8l-0.3-0.6c-0.2-0.3-0.4-0.8-0.8-1.2
		l-0.8-1.1c-0.3-0.4-0.7-0.9-1.3-1.5c-0.5-0.6-1.1-1-1.5-1.3l-1.1-0.8c-0.5-0.4-1.2-0.8-1.9-1.1c-0.4-0.2-0.9-0.4-1.5-0.7
		c-0.3-0.1-0.6-0.2-0.9-0.3c-0.1,0-0.1,0-0.2-0.1c-0.8-0.4-1.6-0.6-2.2-0.7c-0.4-0.1-0.7-0.1-1.1-0.2c-0.1,0-0.2,0-0.3,0l-0.4-0.1
		c-1.1-0.1-2.3-0.1-3.4,0c-0.8,0-1.5,0.2-2,0.3c-0.5,0.1-0.9,0.2-1.1,0.3c-0.1,0-0.1,0-0.1,0.1c-1,0.2-1.8,0.6-2.3,0.8
		c-0.1,0.1-0.3,0.1-0.4,0.2c-0.3,0.1-0.5,0.2-0.8,0.4c-1.1,0.5-2,1.2-2.9,1.9c-0.5,0.4-1,0.8-1.3,1.1c-0.7,0.6-1.2,1.2-1.5,1.6
		l-0.8,1.1c-0.4,0.5-0.8,1.2-1.1,1.8c-0.2,0.4-0.4,0.9-0.7,1.5l-0.1,0.2c-0.1,0.3-0.3,0.8-0.5,1.3c-0.2,0.6-0.4,1.2-0.5,1.7
		c-0.2,0.6-0.2,1.2-0.3,1.8c-0.1,0.7-0.1,1.3-0.1,1.8c0,1.2,0.1,2.3,0.4,3.5c0.1,0.5,0.2,0.9,0.3,1.1c0,0.1,0,0.1,0.1,0.1
		c0.2,1,0.6,1.8,0.8,2.3c0.1,0.1,0.1,0.3,0.2,0.4c0.1,0.3,0.2,0.5,0.4,0.8l0.3,0.6c0.2,0.3,0.4,0.8,0.8,1.2l0.8,1.1
		c0.3,0.4,0.7,0.9,1.3,1.5c0.5,0.6,1.1,1,1.5,1.3c0.8,0.6,1.7,1.2,2.8,1.8l0.2,0.1c0.4,0.2,0.9,0.4,1.5,0.7l0.2,0.1
		c0.3,0.1,0.8,0.3,1.3,0.5c0.7,0.3,1.3,0.4,1.8,0.5c0.5,0.1,1.1,0.2,1.8,0.3c0.7,0.1,1.3,0.1,1.8,0.1c0.1,0,0.3,0,0.4,0l0.4,0.1h0.5
		c1,0,2-0.2,2.4-0.3l0.2,0c0.3-0.1,0.8-0.2,1.3-0.4c0.7-0.2,1.3-0.4,2-0.7c0.1-0.1,0.3-0.1,0.4-0.2c0.3-0.1,0.5-0.2,0.8-0.3l0.6-0.4
		c0.3-0.2,0.8-0.4,1.2-0.8l1.1-0.8c0.5-0.4,1-0.8,1.3-1.2c0.7-0.6,1.2-1.2,1.5-1.6l0.8-1.1c0.4-0.5,0.8-1.2,1.1-1.8
		c0.2-0.4,0.4-0.9,0.7-1.5l0.1-0.2c0.1-0.3,0.3-0.7,0.5-1.3c0.3-0.7,0.4-1.3,0.5-1.7c0.2-1.1,0.4-2.3,0.4-3.6c0-0.4,0-0.7-0.1-1.1
		C274.1,254.9,274,254.8,274,254.7z"/>
</g>
</svg>
