<?xml version="1.0" encoding="utf-8"?>
<!-- Generator: Adobe Illustrator 27.5.0, SVG Export Plug-In . SVG Version: 6.00 Build 0)  -->
<svg version="1.1" id="Layer_1" xmlns="http://www.w3.org/2000/svg" xmlns:xlink="http://www.w3.org/1999/xlink" x="0px" y="0px"
	 viewBox="0 0 222 105" style="enable-background:new 0 0 222 105;" xml:space="preserve">
<style type="text/css">
	.st0{fill:#FDF8D4;}
	.st1{fill:#43B56F;}
</style>
<g>
	<g>
		<polygon class="st0" points="190.2,17.2 169,17.2 142.7,48 142.7,17.2 124.4,17.2 124.4,87.3 142.7,87.3 142.7,69.8 151.6,60 
			169.9,87.3 191.8,87.3 164.1,46.1 		"/>
		<rect x="199.3" y="17.2" class="st0" width="18.3" height="70.1"/>
	</g>
	<g>
		<path class="st0" d="M5.8,17.2h18.3v54.7h29.7v15.4h-48C5.8,87.3,5.8,17.2,5.8,17.2z"/>
	</g>
	<g>
		<path class="st1" d="M82.2,79.5l32.2-32.2l-11.7-11.7L114,22.3L91.6,2.8l7.6,17.7l-5.5,6.2L82.2,15.2L70.3,27.1l-5.8-6.6l7.6-17.7
			L49.7,22.3L61.4,36L50,47.4L82.2,79.5z M93.2,47.4l-11,11l-11-11l11-11L93.2,47.4z"/>
		<rect x="68.8" y="86" class="st1" width="26.6" height="15.6"/>
	</g>
</g>
</svg>
