<?xml version="1.0" encoding="utf-8"?>
<!-- Generator: Adobe Illustrator 27.5.0, SVG Export Plug-In . SVG Version: 6.00 Build 0)  -->
<svg version="1.1" id="Layer_1" xmlns="http://www.w3.org/2000/svg" xmlns:xlink="http://www.w3.org/1999/xlink" x="0px" y="0px"
	 viewBox="0 0 203 205" style="enable-background:new 0 0 203 205;" xml:space="preserve">
<style type="text/css">
	.st0{fill:#E3C05E;}
	.st1{fill:#FDF8D2;}
	.st2{fill:#0C8169;}
	.st3{fill:#222F3B;}
	.st4{fill:#22303B;}
	.st5{fill:#F9F8CF;}
	.st6{fill:#0E8168;}
	.st7{fill:#138166;}
	.st8{fill:#138167;}
	.st9{fill:#D4BD7F;}
	.st10{fill:#C9CE75;}
	.st11{fill:#4D9060;}
	.st12{fill:#FBF8D3;}
	.st13{fill:#E3C05D;}
	.st14{fill:#E1C05F;}
	.st15{fill:#F6F6CF;}
	.st16{fill:#23303B;}
	.st17{fill:#F0F5CD;}
	.st18{fill:#E1C05E;}
	.st19{fill:#D9BD5E;}
	.st20{fill:#DFC162;}
	.st21{fill:#F7F8D4;}
	.st22{fill:#DFBF5E;}
	.st23{fill:#22313C;}
	.st24{fill:#F1F5CD;}
	.st25{fill:#273841;}
	.st26{fill:#DCC063;}
	.st27{fill:#223B41;}
	.st28{fill:#DABF60;}
	.st29{fill:#ECF2CC;}
	.st30{fill:#EAEDC9;}
	.st31{fill:#1D4346;}
	.st32{fill:#D1C067;}
	.st33{fill:#CCB95F;}
	.st34{fill:#C6C274;}
	.st35{fill:#BBB460;}
	.st36{fill:#F8F6CB;}
	.st37{fill:#0C8068;}
	.st38{fill:#0E8169;}
	.st39{fill:#0D7E67;}
	.st40{fill:#0E8269;}
	.st41{fill:#14836A;}
	.st42{fill:#10826A;}
	.st43{fill:#12826A;}
	.st44{fill:#23866B;}
	.st45{fill:#479272;}
	.st46{fill:#0F8068;}
</style>
<path class="st0" d="M34,29.1c2.9-2.5,5.7-5.1,8.7-7.5c5.8-4.5,12.1-8.4,18.7-11.5c7-3.3,14.2-5.7,21.7-7.4c4.5-1,9-1.5,13.5-1.9
	c4.2-0.4,8.3-0.4,12.5-0.1c8,0.4,15.8,1.9,23.4,4.2c6.2,1.9,12,4.4,17.7,7.4c6.1,3.2,11.7,7.2,17,11.7c4.1,3.5,8,7.3,11.5,11.3
	c4.3,4.9,8,10.3,11.3,16c4,7,7.1,14.5,9.3,22.2c1.6,5.5,2.6,11.2,3.1,16.9c0.4,4.5,0.5,9,0.4,13.4c-0.3,8-1.5,15.9-3.8,23.6
	c-1.8,6.1-4.1,12-7,17.6c-3.4,6.6-7.4,12.6-12.2,18.3c-3,3.6-6.3,7-9.8,10.2c-5.1,4.7-10.7,8.8-16.7,12.3
	c-6.1,3.6-12.5,6.6-19.3,8.7c-6.8,2.2-13.7,3.8-20.9,4.4c-5,0.4-10,0.6-15,0.3c-7.8-0.4-15.4-1.8-22.8-4.1
	c-5.8-1.7-11.3-3.9-16.7-6.6c-1.4-0.7-2.9-0.8-4.3-0.4c-6.6,2.1-13.2,4.2-19.7,6.3c-10.6,3.4-21.3,6.8-31.9,10.2
	c-0.7,0.2-1.5,0.7-2.1,0.1c-0.4-0.5,0.1-1.3,0.3-2c5.3-15.7,10.6-31.4,15.9-47.1c0.4-1.1,0.6-2.3,0.8-3.5c0.1-0.8,0-1.6-0.5-2.3
	c-4.6-7.6-8.2-15.7-10.4-24.4c-1.5-6-2.8-12.1-3.1-18.4c-0.4-5.7-0.4-11.4,0.1-17c0.5-5,1.4-10,2.7-14.9c2.4-9.5,6.2-18.3,11.1-26.7
	c2.6-4.4,5.7-8.6,9.1-12.7c0.7-0.3,1.1,0.2,1.5,0.5c2.4,1.8,4.8,3.7,7.3,5.5c5.2,3.6,10.8,6.4,17.1,7.8c2,0.4,4,0.7,6,0.8
	c1,0,1.3-0.2,1.3-1.3c-0.1-2.7,0.6-5.2,2.4-7.3c0.6-0.7,1.3-1.3,2.2-1.7c-0.6,0-1.4,0.3-1.9-0.5c0.5-0.5,1.1-0.4,1.7-0.4
	c2.2,0,4.5,0,6.9,0c1.5,0.1,2.9,0.3,4.3,0.8c0.8,0.5,0.5,1,0.1,1.5c-1.3,1.7-2.7,3.3-4,5c-1.7,2.4-3.2,4.9-5,7.3
	c-1.4,0.3-2.7,0-4.1,0.4c-6.5,0.2-12.8-0.5-18.6-3.3c-4.1-1.9-7.7-4.5-11-7.7c-1.3-1.3-1.3-1.3-2.4,0.1c-8.2,10.5-13.9,22.2-17,35.2
	c-2,8.4-2.7,16.8-2.3,25.4c0.6,12.8,3.7,25,9.6,36.5c0.5,1,1.1,1.2,2.1,0.8c3.6-1.3,7.3-2.1,11.1-2.5c1-0.1,1.9,0.2,2.9-0.3
	c0.3-0.1,0.5-0.1,0.8-0.1c0.8,0.2,1.6,0.1,2.3,0.2c0.5,0,1.1,0,1.1,0.9c-1.2,1.4-2.8,2.2-4.3,3.3c-4.3,0.8-8.3,2.1-12.2,3.8
	c0.6,0.3,1.1,0,1.6-0.2c2.6-0.9,5.1-1.7,7.8-2.2c0.7-0.1,1.3-0.2,2,0.3c1.1,0.2,2-0.3,2.8-0.9c4.8-3.3,10.2-3.6,15.7-3.1
	c2.3,0.2,4.5,0.5,6.8,1.1c11.8,3.5,22.1,9.4,31.8,16.5c7.5,5.5,14.8,11.2,22.4,16.5c1.1,0.7,2.2,1.5,3.3,2.2
	c0.9,0.6,1.4,1.4,1.3,2.6c-0.1,0.9,0,1.8,0,2.7c0,1.2-0.6,1.8-1.5,2.3c-0.9,0.5-1.6,0.1-2.3-0.4c-7.1-5.6-15.1-9.6-23.2-13.4
	c-5.8-2.8-11.7-5.5-18-7.2c-8.5-2.3-16.7-1.4-24.7,2.3c-4.1,1.9-7.8,4.4-11,7.4c-3.9,3.6-6.5,7.9-7.9,13c-0.4,1.6,0,2,1.6,1.6
	c2.6-0.7,5-1.7,7.5-2.6c5.2-1.9,10.5-3.7,15.8-5.5c0.8-0.3,1.6-0.2,2.4,0.2c1.5,1,3.2,1.7,4.8,2.5c0.8,0.4,1.5,0.5,2.4,0.2
	c4.8-1.5,9.7-2.5,14.7-3c6.2-0.6,12.4-0.1,18.6,0.9c8.2,1.3,15.5,4.6,22.6,8.8c0.1,0.1-0.1,0.2,0,0c0,0,0-0.1-0.1-0.1
	c-1-0.6-1.9-1.3-2.6-2.3c-0.5-0.6-0.5-1.2,0.1-1.7c1.5-1.2,1.8-2.8,1.8-4.7c0-1.7,0.1-1.8,1.8-2.3c0.4-0.1,0.7-0.2,1.1-0.3
	c1.2-0.3,2.2-0.1,2.9,1c1.5,2.2,3,4.3,4.4,6.6c0.9,1.4,1,1.5,2.6,0.9c2.3-0.8,4.6-1.8,6.9-2.7c0.9-0.4,1-0.9,0.7-1.7
	c-1-2.4-2.1-4.7-3.2-7c-0.4-0.8-0.9-1.5-1.1-2.4c0-0.4,0.3-0.6,0.5-0.7c1.9-0.7,3.5-1.7,5.1-2.5c-2,0.6-4.2,1.5-6.6,1.5
	c-1-0.9-1.6-2-2.4-2.9c-1.1-1.5-2.3-2.9-3.4-4.4c-0.4-0.5-1-0.9-0.7-1.7c0.3-0.7,1.8-1.5,2.6-1.5c0.6,0.1,1.2,0.3,1.8,0.6
	c2.8,1.3,5.7,2.3,8.5,3.7c0.2,0.1,0.5,0.2,0.7,0c0.1-0.4-0.3-0.5-0.6-0.6c-3.2-1.5-6.5-2.9-9.8-4.1c-1-0.3-1.8-0.3-2.7,0.2
	c-0.7,0.4-1.4,0.9-2.3,0.2c0.1-1.9,0.8-3.5,1.9-5c1.7,0,3.1,0.9,4.5,1.5c2.4,1.1,4.8,2.1,7.2,3.4c0.2,0.1,0.3,0.1,0.4,0.2
	c0.1,0.1,0.1,0.1,0.2,0c0-0.1,0,0-0.2,0c-3.6-1.9-6.9-4.1-10.5-5.7c-0.3-0.2-0.6-0.4-0.8-0.8c0.1-0.8,0.5-1.5,1-2.1
	c0.5-0.2,0.8,0,1.1,0.2c5.1,2.9,10.1,5.9,14.4,9.9c1.4,1.3,2.8,2.6,4.1,3.9c0.5,0.5,0.9,1,0.6,1.7c-0.2,0.4,0.1,0.8,0.2,1.2
	c0.9,2,1.8,3.9,2.7,5.8c0.3,0.7,0.7,0.9,1.4,0.4c1.9-1.2,1.8-1.3,0.7-3.1c-2-3.1-4.5-5.7-6.9-8.4c-0.1-0.1-0.1-0.1-0.2-0.2
	c-0.3-0.4-0.9-0.7-0.5-1.2c0.3-0.4,0.8,0,1.2,0.1c2.3,0.7,3.6,2.7,5,4.4c1.3,1.5,2.6,3.1,3.7,4.7c0.3,0.4,0.5,0.9,1.2,0.3
	c0.3-0.2,0.5-0.3,0.7-0.5c0.4-0.5,0.4-1,0.1-1.4c-0.2-0.4-0.4-0.7-0.6-1.1c-0.1-0.3-0.3-0.5-0.1-0.8c0.2-0.3,0.5-0.1,0.8,0
	c0.3,0.1,0.5,0.2,0.8,0.4c1.7,0.9,1.7,0.9,3-0.4c5.2-5,10.2-10.3,14.2-16.4c3.8-5.6,7-11.6,9.5-17.8c3-7.4,4.9-15.1,5.8-23
	c0.7-5.6,0.8-11.1,0.4-16.8c-0.6-8.5-2.3-16.8-5.2-24.8c-3.9-10.6-9.5-20.2-16.8-28.7c-7.5-8.7-16.3-15.7-26.3-21.2
	c-8.1-4.4-16.8-7.4-25.9-9.1c-0.4-0.1-0.8-0.2-1.3-0.3c-0.8-0.4-1-1.1-1.4-1.7c-0.7-1.1-1.3-2.3-2.3-3.3c-0.1,1,0.1,1.8,0.3,2.6
	c0.1,0.6,0.3,1.1-0.1,1.7c-1.6,0.6-3.2,0-4.7-0.1c-1.3-0.1-2.5-0.2-3.8-0.2c-4.4,0.1-8.7-0.2-13.1,0.3c-5.7,0.6-11.3,1.6-16.7,3.3
	c-11,3.4-21.2,8.5-30.3,15.6c-2.5,2-4.8,4.1-7.3,6.3c-0.5,0.3-1,0.3-1.3-0.1c-1.5-1.4-3.3-2.7-4.6-4.4C34,29.4,34,29.3,34,29.1z"/>
<path class="st1" d="M33.9,29c1.7,1.9,3.5,3.6,5.6,5c0.7,0,1.1,0.4,1.5,0.7c4.6,3.2,9.8,4.5,15.3,4.6c2,0,4,0.2,6.1,0.5
	c0.9,0.1,1.7,0.1,2.9,0.1c-1.2,0.8-2.2,1.3-2.9,2.1c-1.9,2.3-2.6,4.9-2.3,7.8c0.1,1-0.2,1.1-1,1c-4.2-0.1-8.3-1-12.3-2.4
	c-6.9-2.6-12.7-6.8-18.4-11.3c-0.5-0.4-1.1-0.8-1.7-1.2c-0.1-1.6-1.3-2.6-2.1-3.8c-1-1.6-1.9-3.2-2.6-4.9
	c-2.7-5.8-4.3-11.8-5.4-18.1c-0.1-0.6-0.2-1.3,0.1-1.9c0.1-0.3,0.2-0.6,0.6-0.6c0.4,0,0.5,0.2,0.7,0.5c2.4,4.2,4.7,8.5,7.5,12.4
	c1.8,2.5,3.6,5,5.6,7.3C31.9,27.6,32.9,28.2,33.9,29z"/>
<path class="st2" d="M119.3,9.4c8.3,1.3,16.2,3.9,23.8,7.5c6.4,3,12.3,6.8,17.8,11.2c5.7,4.6,10.8,9.8,15.3,15.5
	c6.3,8,11,16.9,14.4,26.5c1.9,5.4,3.2,10.9,4,16.5c0.9,5.9,1.2,11.8,0.9,17.7c-0.2,3.9-0.7,7.7-1.4,11.6c-0.9,5.3-2.3,10.5-4.2,15.6
	c-4,10.7-9.8,20.4-17.3,29c-2.4,2.7-5,5.2-7.6,7.8c-0.9,0.9-1.7,1.4-2.9,0.4c-0.4-0.4-1-0.5-1.7-0.9c0.2,0.8,0.6,1.3,0.9,1.8
	c0.5,0.7,0.5,1.3-0.3,2c-0.3,0.1-0.5,0-0.7-0.3c-1.4-2-2.6-3.9-4.3-5.5c1.4,1.8,2.7,3.6,4.2,5.4c0.1,0.2,0.2,0.3,0.1,0.5
	c-0.4,1-0.9,1.1-1.5,0.2c-1.9-2.7-4.1-5.2-6.2-7.8c-0.9-1.1-2.3-1.4-3.8-1.7c0.8,0.9,1.5,1.8,2.3,2.6c2.4,2.4,4.4,5.2,6.3,8.1
	c0.4,0.7,0.3,1-0.2,1.4c-2.4,2-2.4,2-3.7-0.8c-0.8-1.6-1.5-3.3-2.2-4.9c-0.2-0.4-0.8-0.8,0.1-1.3c0.3-0.2-0.3-0.7-0.6-1
	c-3.7-3.8-7.8-7.3-12.3-10.2c-2.3-1.5-4.6-2.8-7.1-4.1c-0.4-0.8,0.2-1.4,0.5-2c1-2.2,2-4.5,1.7-7.1c0.1-0.4,0.2-0.5,0.5-0.7
	c1.8-1.1,2.3-2.9,2.3-4.9c0-2.9-0.1-5.7,0.4-8.6c0.5-2.6,1.3-5,2.3-7.4c0.5-1.2,0.9-2.4,1.3-3.6c0.1-0.2,0.1-0.3,0.1-0.5
	c0.1-0.8,0.1-1.8-0.5-2.3c-0.7-0.5-1.6,0.2-2.3,0.4c-0.8,0.3-0.7,1-0.6,1.7c0.1,1.6,0,1.7-1.7,1.9c-1.1,0.1-2.2,0.4-3.1-0.5
	c-0.5-0.5-0.9-1.1-0.6-1.9c0.6-1.5-0.2-2.5-1.2-3.4c-0.7-0.6-1.7-0.9-2.1-1.9c0.9-0.6,1.8,0,2.6,0c1,0,1.9,0.3,2.9,0.4
	c1.1,0.1,1.9,0.6,2.6,1.5c0.3,0.4,0.5,0.7,1.2,0.6c1.1,0.1,2,0,3-0.5c0.3-0.2,0.7-0.6,1.1-0.3c0.4,0.3,0.3,0.8,0.2,1.3
	c0,0.2-0.1,0.4-0.1,0.6c0-1.2,0.7-2.1,1.4-3c2.5-3.1,3-6.4,1.6-10c-0.2-0.4-0.2-0.9-0.3-1.4c0-0.2-0.1-0.3-0.2-0.4
	c-0.1-0.1-0.2-0.2-0.3-0.3c-0.2-0.1-0.3-0.2-0.4,0c-0.2,0.1-0.4,0.1-0.6,0c-1-0.3-1.9-0.5-3-0.6c0.5,1,1.4,1.2,2.3,1.4
	c0.2,0,0.3,0.1,0.5,0.2c0.1,0.1,0.1,0.2,0,0.3c-2.3,0.7-3.9-0.2-4.4-2.5c-0.1-0.4-0.1-0.9-0.3-1.3c-1-2.8,0.4-4.6,2.4-6.3
	c1.4-1.2,3.2-1.7,4.8-2.5c1.8-0.8,1.8-0.8,1.2-2.6c0-0.1-0.1-0.2-0.1-0.5c0-0.5,0.4-0.8,0.7-1.1c0.5-0.4,0.5-0.9,0.2-1.4
	c-0.4-0.5-0.8-0.2-1.2,0c-1.6,0.8-3.2,1.6-4.8,2.5c-1.2,0.6-2.2,0.5-3.3-0.3c-2.8-2-5.6-4-8.5-5.9c-2.8-1.8-6.1-2.3-9.3-2.8
	c-6.3-1-12.6-0.5-18.9,0.5c-2.8,0.4-5.6,0.9-8.4,1.6c-2.6,0.6-4.9,1.7-6.7,3.7c-1,1.1-1.4,1.1-2.7,0.5c-1-0.4-1.9-0.9-3-1.3
	c0.1,3,0.6,5.9,0.9,8.8c0.8,6.6,1.7,13.2,3.1,19.8c1.6,7.6,4.1,14.9,8.2,21.6c1.7,2.8,3.1,5.9,4.3,9c-1.1-3.1-2.4-6-4.1-8.8
	c-4.5-7.3-6.2-15.3-7.1-23.7c-0.4-3.8-0.1-7.6-0.2-11.4c0-0.4,0-0.8,0.4-1.2c0.6,0.2,0.4,0.7,0.4,1c0.3-2.1,1.1-4.2,1.8-6.2
	c1-2.7,2.2-5.4,3.6-8c0.2-0.4,0.5-0.9,0.5-1.5c1.8-1.1,3.9-1.3,6-1.6c0.6,0.4,0.2,0.7,0.1,1.1c-0.2,0.3-0.4,0.6-0.6,0.9
	c-1.1,1.8-2.1,3.4-2.8,5.3c-0.1,0.1-0.1,0.2-0.2,0.3c-0.1,0.2-0.2,0.4-0.3,0.6c-0.5,1.2-0.9,2.3-1.4,3.5c1.3-1.1,2.3-2.3,3.3-3.6
	c0.3-0.3,0.6-0.5,0.9-0.2c0.3,0.3,0.1,0.7,0,1.1c-0.7,2.4-1.4,4.7-1.9,7.2c-0.1,0.4-0.1,0.7-0.3,1.1c-0.5,1.4,0,2.5,1,3.6
	c2,2,4.2,3.8,6.5,5.3c0.4,0.3,0.8,0.5,1.2,0.8c0.7,0.6,0.8,1.2,0.1,1.9c-0.5,0.5-1,0.8-1.6,1.2c-1.1,0.7-1.4,1.6-1.2,2.9
	c0.2,1.2,0.4,2.4,0.9,3.6c0.1,0.3,0.2,0.6,0.2,1c0,0.3,0,0.4,0.1,0.7c0.1,0.3,0.1,0.4,0.2,0.7c1.3,4.3,3,8.2,5.9,11.6
	c-1.1-2.9-2-5.8-3-8.7c-0.1-0.2-0.1-0.3-0.1-0.5c0-0.2,0.3-0.2,0.1-0.5c-0.1-0.2-0.1-0.3-0.2-0.4c-0.1-0.2-0.1-0.3-0.2-0.4
	c-0.3-0.9-0.5-1.7-0.8-2.6c-0.1-0.2-0.1-0.3-0.1-0.5c-0.1-0.2-0.1-0.4-0.2-0.6c-0.1-0.2-0.1-0.3-0.2-0.4c-0.3-0.6-0.3-1.1-0.4-1.6
	c-0.5-2.4-0.4-2.7,1.7-3.9c1.1-0.7,2.3-1.2,3.5-1.8c0.3-0.1,0.6-0.4,0.9-0.1c0.3,0.4,0,0.7-0.3,1c-0.8,1-1.9,1.6-2.9,2.3
	c-1.3,0.9-1.5,1.5-1,2.9c2.6,6.7,5,13.4,7.9,20c0.9,2,2.3,3.5,4.1,4.6c3,1.9,6.1,3.8,9.7,4.4c0.4,0.1,0.9,0,0.8,0.7
	c-0.2,0.2-0.4,0.3-0.6,0.3c-2.8-0.2-5.6,0.2-8.4-0.7c-2.4-1.7-4.7-3.4-6.8-5.3c-5.5-5-11-9.9-15.5-15.8c-2-2.6-3.7-5.5-4.9-8.6
	c-0.1-0.3-0.1-0.5-0.1-0.8c0,0.2,0.1,0.3,0.1,0.5c0.2,1.2-0.1,2.4,0.2,3.5c0.6,2.6,2.3,4.5,3.9,6.5c2.6,3,5.5,5.7,8.3,8.5
	c2.6,2.6,5.4,4.9,8.3,7.2c0.5,0.4,1.1,0.6,1.1,1.4c-0.6,0.4-1,0-1.4-0.2c-5.5-3.6-11.1-7.3-16.2-11.5c-1.2-1-2.3-2.3-3.3-3.2
	c1.8,1.8,3.7,3.7,5.6,5.6c3,3,6,6.1,8.6,9.6c2.2,2.9,3.3,6.4,4.3,9.8c0.8,2.5,1.5,5.1,1.9,7.7c0.3,2,1.2,3.8,2.4,5.5
	c0.5,0.6,0.8,0.9,1.3,0c2.6-4.3,5.3-8.6,6.7-13.4c0-0.2,0.1-0.3,0.2-0.5c0.1-0.3,0.3-0.6,0.7-0.6c0.4,0.1,0.5,0.4,0.6,0.7
	c0.2,1.1,0.2,2.2,0,3.3c-0.2,1.3-0.8,2.4-1.5,3.5c-1.8,2.9-2.8,6-2.6,9.4c0.1,1.8,0.6,3.5,1.2,5c-0.5-2.6-0.7-5.5-0.5-8.4
	c0-0.6,0.1-1.6,0.8-1.6c0.8,0,0.4,1,0.5,1.6c0.5,5.8,5.6,10.9,12.3,9.8c0.7-0.1,1.3-0.4,2.1-0.1c1.8,3.3,3.4,6.6,4.7,10
	c0.3,0.6,0.3,1-0.5,1.4c-2.6,1.2-5.3,2.2-8,3.2c-1,0.4-1.6,0.2-2.2-0.8c-1.5-2.5-3.1-4.9-4.8-7.3c-0.5-0.7-1-1-1.9-0.8
	c-0.2,0-0.5,0.1-0.7,0.1c-2.4,0.6-2.4,0.6-2.4,3.1c0,1.6-0.5,3-1.8,4c-0.6,0.5-0.7,0.8-0.1,1.5c0.9,1.2,2.3,1.8,3.2,3.1
	c-1.9-1-3.8-2-5.7-3.1c-6-3.3-12.4-5.3-19.2-6.3c-4.1-0.6-8.1-1-12.3-0.9c-6.7,0.2-13.2,1.2-19.6,3.3c-0.7,0.2-1.3,0.3-2.1-0.1
	c-1.8-0.9-3.7-1.8-5.4-2.8c-0.5-0.3-1-0.4-1.6-0.2c-6.2,2.2-12.5,4.4-18.7,6.6c-1.8,0.6-3.5,1.4-5.3,1.8c-1.3,0.3-1.7,0-1.6-1.3
	c0-1.5,0.7-2.8,1.3-4.1c2.3-5.7,6.3-10,11.2-13.5c5.8-4.1,12.2-6.7,19.3-7.5c3.5-0.4,7.1-0.1,10.6,0.7c6.3,1.5,12.2,4.1,18.1,6.8
	c6.5,3,12.9,6.1,19,10c2.1,1.3,4.1,2.9,6.1,4.3c0.5,0.4,1,0.9,1.8,0.4c0.8-0.5,1.6-1,1.4-2.1c0-0.3-0.1-0.7,0-1
	c0.4-2.4-0.6-3.9-2.7-5.2c-6.8-4.3-13.1-9.3-19.6-14.1c-6.4-4.8-12.9-9.5-20-13.2c-5.1-2.7-10.5-5-16.1-6.7
	c-0.1-0.7,0.4-0.8,0.8-0.9c3.8-1.4,7.2-3.2,10.3-5.8c0.9-0.8,1.8-1.7,2.6-2.7c0.8-1,1.2-1,1.7,0.1c0.9,1.7,1.9,3.4,3.1,5.2
	c-1.4-3.9-2.5-7.6-3.2-11.4c-0.8-4.6-1.3-9.2-1.6-13.8c-0.1-1.5-0.1-3-0.4-4.5c-0.1-0.4-0.1-0.7-0.1-1.1c0-0.4-0.1-1,0.4-1.2
	c0.4-0.2,0.7,0.2,1,0.5c0.9,0.8,2,1.3,2.9,2.1c0.2,0.2,0.5,0.4,0.8,0.2c0.3-0.2,0-0.5,0-0.9c-0.2-2.4-0.7-4.6-1.3-6.7
	c-0.2-0.6-0.5-1.1-1.1-1.5c-0.7-0.5-1.3-1.1-1.9-1.8c-1.1-1.4-1.1-3.1,0.3-4.6c1,0.1,1.4-0.3,1.4-1.3c0-0.7,0.4-1.4,0-2.2
	c0.3-0.7,0.2-1.3-0.3-1.8c-0.5-0.6-1.1-1.1-1.7-1.5c-1.4-0.9-2.7-0.5-3.3,1.1c-0.2,0.6-0.3,1.6-1,1.4c-0.8-0.1-0.4-1.1-0.5-1.7
	c0-0.1,0-0.2-0.1-0.2c-0.5,0.8-0.7,1.7-1,2.6c-0.1,0.2-0.2,0.5-0.5,0.5c-0.3,0-0.4-0.3-0.4-0.6c0-1.5,0.1-3,0.7-4.3
	c0.1-0.3,0.3-0.6,0.6-0.6c2.1-0.4,4.2-1.5,6.3,0.4c-0.6-2.1-1.6-3.7-3.9-4.3c-0.5-0.5-0.8-1-1.2-1.5c-2.1-2.8-5.5-3.7-8.8-2.3
	c-0.6,0.3-1.2,0.7-2,0.7c-1.8-0.5-3-1.5-3.4-3.5c0-0.2,0-0.3,0-0.5c0-0.2,0-0.3,0-0.5c0-0.2,0-0.4,0.1-0.6c0-0.1,0-0.2,0.1-0.3
	c0.1-0.3,0.2-0.5,0.2-0.7c0.1-0.2,0.1-0.3,0.2-0.4c0.3-0.6,0.7-1,1-1.6c0.1-0.1,0.1-0.2,0.2-0.2c0,0-0.1,0-0.1,0
	c0,0.1-0.1,0.1-0.1,0.3c-0.4,0.7-0.9,1.1-1.3,1.8c-1.4,2.7-0.7,5.7,1.8,7.7c0,0.7-0.3,1.2-0.6,1.7c-2.6,4.4-3.5,9.3-4,14.3
	c-0.4,4.5-0.5,9-1.7,13.3c-1.1,3.8-3,7.2-5.7,10.1c-2,2.3-4.2,4.3-6.3,6.5c-3.8,3.9-5.6,8.7-6.2,14.1c-0.1,0.2-0.1,0.2-0.2,0.4
	c-4,0.5-7.8,1.4-11.5,2.7c-1.2,0.4-1.6,0.1-2.1-0.9c-4.1-8-6.8-16.4-8.4-25.1c-1.3-6.9-1.6-14-1.2-21C11.7,79.4,16,65.1,24,52.1
	c2.1-3.4,4.5-6.7,6.9-9.9c0.6-0.8,1-0.4,1.4,0.1c3.5,3.6,7.5,6.6,12.1,8.7c3.6,1.6,7.4,2.4,11.4,2.8c2.1,0.2,4.1,0.2,6.3,0.2
	c0.5,0.5,0.2,1,0,1.4c-1.4,3.8-2.3,7.6-2.7,11.7c3.9-4,8.4-7,13-10.2c0.9,0.4,1.2,1.3,1.5,2.1c1,2.7,1.4,5.5,1.5,8.3
	c0,1.8,0.1,3.5,0.3,5.3c0.6,4.3,3.8,5.8,7.1,6.1c0.5,0,0.9-0.3,1.1-0.7c1-1.7,2.3-3.1,4.2-3.9c0.7-0.3,0.9-1,0.7-1.7
	c-0.4-2.6-0.1-5.3-0.2-7.9c0-1.1,0.2-2,1.1-2.8c0.4-0.4,0.4-0.8,0.5-1.3c0-1.3-0.6-2.6-0.3-4c0.2-0.2,0.4-0.3,0.7-0.2
	c0.8,0.9,0.7,2.1,1,3.1c0.4,1.3,0.4,1.4,1.6,0.9c5.1-1.9,10.3-3.5,15.6-4.5c2.9-0.5,5.8-1,8.6-1.4c1.2-0.2,1.3-0.2,0.7-1.4
	c-2.2-4.3-5-8.2-8.1-12c0.2-0.9-0.2-1.5-0.8-2c-1.4-1.1-2.9-2-4.7-2.4c-0.8-0.2-1.6-0.1-2.4,0c-0.4,0.1-1,0.2-1.1-0.3
	c-0.2-0.6,0.5-0.7,0.8-0.8c2.6-0.7,5.1-0.7,7.5,0.7c0.6,0.4,1.2,0.7,1.6,1.1c-1.2-0.8-2.5-1.7-3.9-2.5c-3-1.6-5.8-1.3-8.5,0.8
	c-1.7,1.3-3.3,2.9-4.8,4.4c-1.8,1.9-3.9,3.5-6.2,4.8c-0.7,0.4-1.5,0.8-2.4,1.1c-0.7,0-1.1-0.4-1.5-0.7c-0.5-0.4-1-0.8-1.6-1.2
	c-2.3-1.7-2.8-1.5-4.8,0.6c-2.6,2.8-4.9,5.8-7.2,8.7c-0.2,0.3-0.4,0.6-0.9,0.8c-0.2,0-0.3,0-0.5,0c-0.3-0.5,0-0.8,0.2-1.2
	c2.7-3.7,5.3-7.4,8.7-10.4c0.2-0.2,0.7-0.4,0.4-0.8c-0.3-0.3-0.7-0.5-1.1-0.3c-0.3,0.1-0.5,0.4-0.8,0.6c-2.1,2.1-3.8,4.6-5.5,7
	c-1.1,1.6-2,3.3-3.3,4.8c-0.2,0-0.3,0-0.5-0.2c0.6-1.6,1.7-2.9,2.5-4.3c1.9-3,3.9-5.9,6.4-8.5c0.1-0.2,0.3-0.3,0.1-0.6
	c0-0.7,0.6-0.7,1-0.9c2.4-0.9,4.9-1.1,7.4-1.5c3.6-0.6,7.2-1.5,10-4.1c1.6-1.5,3.2-2.9,4.7-4.4c2.5-2.4,5.4-4,8.9-4.5
	c3.6-0.4,6.6,1.1,8.3,4.3c1.1,2.2,1.8,4.6,3,6.8c0.5,0.9,1.3,1.5,1.4,2.7c-0.2,0.2-0.4,0.3-0.7,0.4c-2.5,0.4-4.9,0.7-7.3,1.4
	c0.9,1,1.9,1.7,2.8,2.6c6.8,6.2,11.2,13.9,14.9,22.2c1.2,2.7,2.3,5.4,3.2,8.1c0.1,0.4,0.3,0.8,0.6,1c2.2,1.5,4.1,3.5,6.2,5.1
	c1.1,0.8,1.5,0.8,2.6-0.1c2.2-1.7,3-3.9,2.5-6.7c-1.2-8.1-2.2-16.3-3.8-24.4c-0.2-0.9-0.5-1.7-0.4-2.8c0.1-0.2,0.1-0.3,0.4-0.5
	c0.2,0,0.3,0,0.4,0.1c1.5,3.8,2.2,7.8,3.1,11.6c0.5,2,0.5,2,2.5,3.2c-0.1-1.5-1-2.8-1.2-4.4c-0.1-2.3,0.1-4.5-0.1-6.7
	c-0.3-3.3-1.7-6.1-3.6-8.7c-1.8-2.6-3.9-4.9-6.1-7.2c-3.6-3.9-6.8-8.1-9.9-12.4c-2.3-3.2-4.5-6.6-6.6-10
	C119.6,10.4,119.3,10,119.3,9.4z"/>
<path class="st3" d="M80,107.3c0.1,0.4,0.4,0.6,0.5,0.9c0.1,0.3,0.1,0.6-0.2,0.8c-0.2,0.2-0.5,0-0.7-0.1c-1.5-0.9-3.1-1.8-4.6-3.4
	c0.8,11.4,1.3,22.4,5.4,32.9c-1.8-1.9-3-4.2-4.3-6.6c-1.2,1.4-2.3,2.8-3.8,3.9c-3.2,2.5-6.6,4.4-10.4,5.6c-0.1,0-0.3,0.2-0.4,0.4
	c-3.5-0.6-7-1.2-10.6-1.1c-4.2,0.1-8.2,0.7-11.8,3.2c-0.9,0.7-2,1.4-3.3,1.1c-0.3-1,0.3-1.6,0.9-2.2c1.3-1.1,2.5-2.1,4-2.9
	c0.3-0.2,0.5-0.4,0.8-0.7c-1.2-0.4-2.3-0.1-3.6-0.3c-0.3,0-0.5,0-0.8,0c-1,0.3-1.9,0.2-2.9,0.3c-0.1-2.6,0.5-5.1,1.4-7.5
	c1.3-3.4,3.6-6.1,6.1-8.7c2.9-2.8,5.7-5.6,7.9-9.1c1.8-2.9,2.7-6,3.2-9.3c0.8-5,0.7-10.2,1.7-15.2c0.8-3.7,2-7.2,4.1-10.4
	c0-0.9,0.7-1.2,1.3-1.7c1.4-0.3,2.5-1.2,3.9-1.4c3.4-0.5,5.9,0.7,7.8,3.5c0.2,0.3,0.3,0.6,0.5,0.9c-0.8,0.7-1.9,0.6-2.9,1
	c-1.6,0.6-1.7,0.7-1.7,2.4c-0.1,3.6,0.2,7.2,0.7,10.8c0.4,3.1,2.1,5.4,4.3,7.4c2.1,1.9,4.3,3.7,6.9,4.9
	C79.6,106.7,79.9,106.9,80,107.3z"/>
<path class="st2" d="M62.6,39.8c-4.7-0.1-9.4,0.1-13.9-1.1c-3.3-0.9-6.3-2.4-9.1-4.5c4.2-4.3,8.9-8,13.9-11.3
	c8.7-5.7,18.2-9.7,28.2-12.2c4.4-1.1,8.9-1.8,13.4-2.1c4.6-0.4,9.2-0.3,13.8-0.2c2.2,0,4.4,0.3,6.7,0.5c0.8,0.3,0.7,0.9,0.9,1.4
	c1.4,5,3.1,9.9,5.2,14.7c0.5,1,1.2,2,1.3,3.2c-0.7,0.5-1-0.1-1.4-0.4c-2.3-1.6-4.6-3.2-7.4-4c-3.8-1.1-7.4-0.5-11,0.7
	c-3.3,1.2-6.3,3-9.3,4.8c-2.6,1.6-5.4,2.9-8.3,3.6c-4.8,1.2-9.3,3.1-13.3,6.1c-0.3,0.2-0.6,0.4-0.9,0.5
	C68.5,39.7,65.6,39.7,62.6,39.8z"/>
<path class="st4" d="M137.2,172.4c-1.3,0.1-2.5,0.5-3.8,0.6c-6.2,0.3-11.1-5.4-11-11c0-0.2,0-0.5-0.2-0.7c-1,3.6-0.3,7.3,0.1,10.8
	c-1-1-1.8-3.6-1.9-5.5c-0.2-3.7,0.7-7.1,2.8-10.1c1.3-1.9,1.6-4,1.4-6.2c0-0.3-0.1-0.6-0.5-0.9c-0.6,1.6-1.2,3.2-1.8,4.7
	c-1.5,3.7-3.8,7.1-5.8,10.5c-0.5,1-0.9,0.1-1.1-0.2c-1.5-1.9-2.5-4-2.9-6.4c-0.9-4.9-2.3-9.5-4.3-14.1c-1.1-2.6-3-4.5-4.9-6.6
	c-1.6-1.7-3.1-3.5-4.7-5.2c-1.3-1.4-2.8-2.6-4.2-4c-1-1.1-2-2.2-3-3.4c0.5-0.2,0.7,0.1,0.8,0.2c4.3,4.6,9.5,8,14.6,11.6
	c1.8,1.3,3.7,2.4,5.5,3.7c0.3,0.2,0.6,0.5,1.1,0.3c0.8-0.1,1.2,0.4,1.8,0.7c1.1,0.7,2.3,1.2,3.6,1.6c0.8,1.1,2,0.5,2.9,0.7
	c1.8,0.3,3.7-0.1,5.6,0.3c0.2,0,0.5-0.1,0.8-0.2c1.9-0.5,3.9-0.5,5.8-0.8c0.6,1,0.4,1.9,0.2,2.9c-0.4,2.2-1.5,4.2-2.5,6.3
	c-0.3,0.7-0.6,1.3-1,2c-0.2,0.6-0.2,1.1-0.7,1.5c-0.8,1.6-1.5,3.1-2,4.8c-0.1,1.8-0.5,3.5-0.2,5.2c0.6,3.2,2.7,5.1,6,5.2
	c0.7,0,1.5-0.1,2.3,0.1c2.7-0.3,5.2-1.2,7.8-1.9C141.7,170.4,139.6,171.6,137.2,172.4z"/>
<path class="st4" d="M71.5,39.6c1.7-1.8,3.9-3,6.1-4.2c3.2-1.6,6.8-2.4,10.2-3.5c3.7-1.3,6.9-3.5,10.4-5.4c3.3-1.8,6.8-3.2,10.6-3.5
	c3.8-0.4,7.1,0.7,10.3,2.6c1.3,0.8,2.6,1.7,3.9,2.6c0.9,0.3,1.2,1.1,1.9,1.6c1.2,1.6,2.8,2.7,4.1,4.1c1.1,1.1,2.2,2.2,2.9,3.6
	c0.3,0.5,0.7,1.1,0,1.7c-0.3,0.2-0.6,0.2-0.9,0.1c-0.7-0.2-1.4-0.2-2.1-0.4c-0.3,0-0.5,0-0.8,0c-2.7-0.1-5.3,0.1-7.9-0.1
	c-2-2.6-3-5.7-4.3-8.6c-1-2.2-2.4-4.1-4.9-4.6c-3.1-0.7-6.1-0.1-8.8,1.6c-1.8,1.1-3.2,2.5-4.7,3.9c-1.9,1.8-3.7,3.7-6,5
	c-2.7,1.4-5.7,2.1-8.7,2.4c-2.4,0.3-4.7,0.8-7.1,1.7C74.2,40,72.9,39.7,71.5,39.6z"/>
<path class="st5" d="M124.8,30c-0.8-0.4-1.3-0.9-1.7-1.7c-1.3-2.9-2.6-5.7-3.7-8.6c-1.4-3.5-2.4-7.2-3.5-10.9
	c-0.3-1.7-0.5-3.3-0.8-5.2c2.1,1.5,2.8,3.7,4.1,5.5c2.4,4.4,5.2,8.4,8.1,12.4c3.8,5.3,8,10.2,12.4,14.9c2.6,2.9,5,6,6.1,9.8
	c0.9,3,0.7,6.1,0.7,9.3c-0.6,0.1-0.6-0.4-0.8-0.7c-1.1-3.2-2.5-6.4-4.1-9.5c-0.1-0.1-0.1-0.1-0.1-0.1c-0.1-0.1-0.2-0.2-0.4-0.3
	c-0.3-0.3-0.4-0.7-0.6-1.1c-0.1-0.1-0.1-0.2-0.2-0.3c-0.1-0.2-0.2-0.2-0.3-0.4c-1.1-1.5-2.5-2.4-4.1-3.3c-2-3.9-5.2-6.4-8.9-8.5
	C126.4,31.1,125.6,30.7,124.8,30z"/>
<path class="st3" d="M66.5,53.7c0.2,0,0.4,0,0.6,0c0.4,0.1,0.8-0.1,1.2,0.1c0.2,0.1,0.3,0.1,0.6,0.1c1.4,0.8,2.9,1.3,3.5,2.9
	c-0.4,1.1-1.5,1.3-2.3,1.9c-3.5,2.6-7.1,5.1-10.1,8.3c-0.2,0.3-0.6,0.4-1.1,0.8c0.4-4.9,1.7-9.3,3.3-13.7
	C63.6,53.6,65,53.8,66.5,53.7z"/>
<path class="st6" d="M135.9,170.6c-3.7,1.1-8.2-0.8-8.7-5.4c-0.2-1.6-0.1-3.2,0.5-4.8c0.8,0.4,1.6,0,2.1-0.4
	c1.1-0.8,2.1-0.6,3.2-0.2c3.5,1.3,6.8,2.7,10.1,4.3c0.3,0.2,0.9,0.2,0.5,0.8c-0.3,0.3-0.5,0.7-1.2,0.3c-3.1-1.7-6.4-2.8-9.6-4.3
	c-1.1-0.5-2.4,0.1-3.1,1.1c-0.3,0.4,0.1,0.6,0.2,0.8C132,165.3,134.1,167.8,135.9,170.6z"/>
<path class="st7" d="M99,186.6c-1.9,0-3.7,0-5.5,0c8.4-3,15.6,0.2,22.8,4.2c-1,0.2-1,0.2-1.7-0.1c-2.2-1.1-4.5-2.1-6.9-2.9
	C104.9,186.8,102,186.7,99,186.6z"/>
<path class="st8" d="M36.6,142.5c-0.2,0.7-0.5,1.4-0.9,2.1c-0.4-0.6-1-0.4-1.5-0.3c-3.1,0.6-6.1,1.6-9,2.6c-0.5,0.2-1,0.4-1.2-0.3
	c-0.2-0.7,0.5-0.7,0.8-0.8C28.6,144.5,32.4,143.1,36.6,142.5z"/>
<path class="st8" d="M129.8,155.4c-0.1-0.6,0.3-1,0.6-1.5c0.2,0.3,0.6,0.5,0.9,0.6c3.7,1.7,7.1,3.7,10.5,5.9c0,0.1,0,0.2-0.2,0.2
	c-2.3-0.7-4.2-2-6.4-2.8C133.5,157,131.7,156.2,129.8,155.4z"/>
<path class="st9" d="M37.8,138.7c1.4-0.1,2.9-0.1,4.8-0.1c-0.8,0.4-1.3,0.6-1.8,0.9c0.2-0.5,0.1-0.7-0.5-0.7
	C39.5,138.8,38.7,138.8,37.8,138.7z"/>
<path class="st9" d="M34.1,139c0.9-0.1,1.8-0.2,2.8-0.3c-0.7,0.7-1.7,0.2-2.7,0.4C34.1,139.1,34.1,139,34.1,139z"/>
<path class="st10" d="M160.3,171.2c0.3,0.1,0.4,0.2,0.6,0.4c-0.1,0.1-0.2,0.1-0.5,0.2c-0.1-0.1-0.2-0.2-0.2-0.3
	C160.2,171.3,160.2,171.2,160.3,171.2z"/>
<path class="st11" d="M141.6,160.7c0-0.1,0.1-0.1,0.2-0.1c0.1,0,0.2,0.1,0.2,0.1C141.9,160.9,141.8,160.8,141.6,160.7z"/>
<path class="st11" d="M142.4,161C142.4,160.9,142.5,160.9,142.4,161C142.5,160.9,142.4,161,142.4,161z"/>
<path class="st12" d="M133.9,142.7c-1.9,0.7-3.8,0.7-5.8,0.7c-4.7-0.6-8.5-3-12.2-5.5c-1.1-0.8-2-1.7-2.5-2.9
	c-3.2-6.9-5.8-14-8.4-21.1c-0.6-1.6-0.4-1.9,1-3c1.2-0.9,2.6-1.7,3.3-3.2c-1.8,0.9-3.6,1.9-5.3,2.9c-0.7,0.4-0.9,1.1-0.7,1.9
	c0.2,0.9,0.4,1.8,0.6,2.8c0.2,0.3,0.2,0.5,0.3,0.8c0,0.1,0.1,0.2,0.1,0.3c0.3,1,0.6,1.9,0.8,2.9c0,0.1,0.1,0.2,0.1,0.3
	c0.1,0.2,0.1,0.3,0.1,0.5c0,0.2,0.1,0.2,0.1,0.4c0.1,0.1,0.1,0.2,0.1,0.3c-0.1,0.6,0.1,1.1,0.1,1.6c-0.1,0.5-0.3,0.9-0.8,0.9
	c-0.6,0-0.6-0.4-0.6-0.9c0-0.1,0.1-0.3,0-0.4c-1.3-0.8-0.8-2.5-1.8-3.6c-0.1-0.2-0.2-0.4-0.2-0.7c-0.1-0.2-0.1-0.3-0.2-0.5
	c-0.7-1.7-1-3.4-1.3-5.1c-0.3-1.3,0.2-2.3,1.4-3c0.5-0.3,0.9-0.6,1.3-0.9c1.1-0.8,1.1-1.1-0.1-1.8c-2.7-1.7-5.1-3.7-7.4-5.9
	c-1.3-1.2-1.6-2.6-1.1-4.2c0.8-2.7,1.5-5.5,2.3-8.2c0.1-0.2,0.3-0.5-0.1-0.7c-0.1,0-0.2,0.2-0.4,0.3c-0.7,0.1-1,1.1-1.9,0.7
	c-0.2-0.3-0.2-0.5-0.3-0.9c0-0.2,0-0.3,0.1-0.5c0-0.1,0.1-0.1,0-0.1c0.6-0.5,0.9-1.1,1.3-1.8c0.5-0.3,1-0.5,1.1-1.2
	c0-0.2,0.1-0.3,0.2-0.5c0.3-0.3,0.7-0.4,0.7-1c-0.1-0.4-0.2-0.8-0.3-1.2c0.1-0.3,0.2-0.5,0.4-0.8c0.4-0.1,0.7-0.1,1.2-0.1
	c1.3,0,2.5,0,3.7,0.2c1.2,0.2,2.4-0.1,3.7-0.5c0.4-0.1,0.8-0.1,1.2-0.2c0.6,0,1.2,0,1.7,0c0.5,0,1.1-0.1,1.3,0.4
	c0.2,0.6-0.6,0.5-0.8,1.1c2.2-0.1,3.8-1.5,5.7-2.4c0.9,0.1,1.7-0.5,2.4,0.5c-0.1,0.4-0.3,0.6-0.6,0.7c-2.3,1-4.2,2.5-6.2,3.9
	c1.7-0.8,3.5-1.3,5.3-1.7c1.1-0.2,2.2-0.1,3.2,0.4c3.4,1.7,6.6,3.8,9.9,5.6c0.3,0.1,0.5,0.3,0.8,0.4c0.5,0.2,1.1,0.8,1.7,0.3
	c0.4-0.3,0-1.8-0.5-2.3c-0.5-0.5-1.2-0.8-1.7-1.5c0-1.1,0.6-1.6,1.7-1.8c0.4,0.1,0.7,0.2,1,0.5c0.3,0.6-0.1,1,0,1.6
	c1.2-0.4,2.1,0,2.9,0.8c0.5,0.4,1,0.7,1.7,0.8c0.2,0.1,0.3,0.1,0.4,0.2c0.2,0.2,0.3,0.3,0.5,0.3c0.2,0,0.4,0,0.6,0
	c0.2,0,0.3,0.3,0.5,0c2-0.6,3.8-1.6,5.6-2.3c0.5-0.2,1-0.5,1.7-0.3c0.2,0.9,1.3,1.7,0.8,2.5c-0.4,0.6-1.5,0.7-2.2,1.1
	c-1.5,0.8-3.1,1.2-4.4,2.3c-0.9,0.8-1.7,1.8-2.4,2.8c-0.6,0.9,0.1,1.9,0,2.9c0,0.4,0.1,0.8,0.2,1.2c0.4,2.6,1,3.1,4.1,3
	c0.1-0.1,0.4-0.1,0.2-0.3c-0.2,0-0.3,0-0.5,0c-0.5-0.3-1.4-0.3-1.3-0.8c0.1-0.7,0.9-0.3,1.5-0.3c0.1,0,0.2,0,0.4-0.2
	c0.2-0.1,0.4,0,0.6,0c0.1,0,0.2,0,0.4,0.1c0.2,0,0.3,0,0.5,0.1c0.1,0.1,0.1,0.1,0.2,0.1c0.4,1.6,0.7,3.1,1.1,4.6
	c0.6,2.2,0.1,4.1-1.1,5.9c-1,1.6-2.1,3.1-2.9,5.3c0-1.1,0-1.8,0-2.5c-1.3,0.5-2.3,1.5-3.9,0.9c-0.6,0-1-0.4-1.3-0.8
	c-1.3-1.8-3.2-2.4-5.2-2.4c-1.3,0-2.7,0.1-3.9-0.9c0,0.4,0.3,0.5,0.5,0.8c0.1,0.1,0.1,0.2,0.2,0.4c0.9,1,2,1.5,2.9,2.3
	c1,0.9,1.3,1.8,0.9,3.1c-0.4,1.3,0.7,2.5,2.1,2.4c0.9-0.1,1.9,0.1,2.5-0.4c0.7-0.5-0.1-1.6,0-2.4c0.1-0.5,0.2-0.8,0.7-1
	c0.8-0.2,1.7-0.4,2.5-0.7c0.4-0.1,0.6-0.1,0.6,0.3c0.2,1,0.6,2,0.3,3.1c-0.8,2.5-2,4.8-2.8,7.3c-1.2,3.7-1.4,7.5-1.3,11.4
	c0,1,0.1,2-0.2,2.9C136.3,140.9,135.4,142,133.9,142.7z"/>
<path class="st0" d="M72.4,57c-0.8-1.4-2.3-2-3.5-2.9c3-3.9,5.9-7.9,9.6-11.2c0.6-0.6,1.1-0.6,1.8-0.2c1.5,0.9,2.8,2,4.2,3.1
	c1.1,0.4,1.6,1.2,2.2,2c1.1,1.4,1.1,1.4,2.6,0.6c5.9-3,12-5.6,18.4-7.4c0.6-0.2,1.2-0.5,2-0.3c1.7,1.4,2.8,3.2,4,4.9
	c2,2.7,3.8,5.6,5.1,8.7c-0.8,0.6-1.7,0.5-2.5,0.6c-7.6,0.9-15.1,2.6-22.3,5.3c-2.7,1-2.7,1-3.2-1.8c-0.1-0.6-0.2-1.1-0.4-1.8
	C90.2,56,90,55.5,89.9,55c0,0.5,0.2,0.9,0.1,1.5c0.1,1.5,0.3,3,0.5,4.5c0.1,0.5,0,0.8-0.4,1c-0.9,0.6-1.2,1.5-1.2,2.6
	c0,2.8-0.1,5.5,0.2,8.2c0.1,0.9-0.1,1.4-1,1.8c-1.8,0.7-3.1,2-3.9,3.7c-0.5,1-1.3,0.9-2.3,0.8c-3.3-0.5-5.7-2.2-6.5-5.6
	c-0.3-1.6-0.4-3.2-0.4-4.8c0-3-0.3-5.9-1.2-8.8C73.5,58.8,73.1,57.9,72.4,57z"/>
<path class="st13" d="M136.1,39.8c1.8,0.7,3.3,1.8,4.3,3.4c0,0.2,0,0.3,0.2,0.4c0.1,0,0,0,0,0c0.2,0.6,0.5,1.2,0.4,2
	c0.6,3.3,1.3,6.5,1.9,9.7c0.6,3.7,1.2,7.4,1.7,11.2c0.4,3,0.9,5.9,1,8.9c0,1.6-2.5,5-4,5.4c-0.5,0.1-0.9-0.1-1.3-0.4
	c-1.6-1-2.7-2.7-4.3-3.6c-3-1.7-3.6-4.7-4.7-7.5c-3.1-7.8-6.9-15.3-12.4-21.8c-2.2-2.6-4.7-4.8-7.4-7.1c2.6-0.7,5.2-1.1,7.8-1.4
	c3-0.3,5.9-0.2,8.9-0.2c0.3,0,0.5,0,0.8,0c0.7,0.3,1.4,0.2,2.1,0.3c0.3,0,0.5,0,0.9,0C133.4,38.8,134.7,39.2,136.1,39.8z"/>
<path class="st13" d="M124.1,65.1c0.8,2.1,1.6,4,2.2,6.1c0.2,0.8,0.1,1.1-0.7,0.9c-4.6-1-9.3-1.4-14-1.2c-4.1,0.2-8.2,0.7-12.3,1.3
	c-2.9,0.4-5.7,1.2-8.5,1.7C90.1,74,90,74,89.9,73.4c-0.4-3-0.7-6-0.3-9.1c0.1-0.8,0.7-1.1,1.3-1.3c2.8-1,5.7-1.8,8.5-2.6
	c3.9-1.1,8-1.8,12-2.4c2.8-0.4,5.5-0.7,8.3-0.6c0.7,0,0.9,0.4,1.2,0.9C122,60.5,123,62.8,124.1,65.1z"/>
<path class="st14" d="M138.9,88.2c-0.2,0-0.4-0.1-0.7-0.1c-0.3,0-0.4-0.1-0.5-0.2c-0.1-0.1-0.1-0.2-0.2-0.3c-1.9-0.7-3.4-1.9-5-3.1
	c-0.3-0.2-0.5-0.4-0.7-0.5c-1.8-0.7-3.3-1.8-5-2.5c-1.4-0.6-2.8-1.2-4.3-1.6c-0.3,0-0.4-0.1-0.7-0.1c-0.2,0-0.3-0.1-0.5-0.1
	c-0.2,0-0.3-0.1-0.5-0.1c-0.2,0-0.3,0-0.5,0c-0.1,0-0.2,0-0.3-0.1c-0.2,0-0.3-0.1-0.5-0.1c-0.3,0-0.5-0.1-0.9-0.1
	c-1-0.2-2-0.2-3-0.4c-0.3,0-0.5,0-0.8-0.1c-0.3-0.1-0.5-0.1-0.8-0.1c-1.9,0-3.6,0-5.5,0c-1.4,0.1-2.8,0.2-4.2,0.4
	c-0.4,0.1-0.8,0-1.2,0.1c-0.4,0-0.6,0-0.9,0.1c-0.9,0.2-1.6,0.4-2.5,0.4c-0.2,0-0.3,0-0.5,0.1c-0.1,0-0.2,0-0.3,0
	c-0.1,0-0.2,0-0.3-0.1c-2.2,0.1-4.1,0.8-6.2,1.3c-0.3,0.4-0.7,0.4-1,0.6c-0.1,0.1-0.2,0.1-0.3,0.2c-0.1,0.1-0.2,0.1-0.4,0.1
	c-0.5,0.2-0.9,0.3-1.4,0.5c-1.2,0.5-1.8,1.3-1.9,2.6c-0.2,3.3-0.7,6.6-0.9,10c0,0.2-0.1,0.4-0.2,0.6c-0.4,0.4-0.3,0.8-0.3,1.1
	c0,2.6-0.1,5.2,0,7.8c0.4,9.3,2.2,18.3,6.9,26.6c1.7,2.9,3,5.9,4.3,9c0.3,0.6,0.5,1.3,0.4,2.3c-0.4-1.1-0.8-1.9-1.1-2.8
	c-1.2-3.3-2.9-6.3-4.7-9.3c-3.8-6.4-6-13.4-7.5-20.6c-1-4.6-1.7-9.2-2.4-13.9c-0.7-4.4-1.1-8.9-1.5-13.3c-0.1-0.5-0.4-1-0.2-1.7
	c1.3,0.6,2.6,1.2,3.9,1.8c0.5,0.2,1.1,0.5,1.5-0.1c2.6-3.3,6.4-4.3,10.2-5c4.6-0.9,9.2-1.5,13.9-1.8c5.2-0.3,10.3,0.2,15.4,1.3
	c3.3,0.7,5.9,2.8,8.6,4.6c1.8,1.2,3.5,2.4,5.2,3.7c0.5,0.4,1.1,0.5,1.7,0.1c1.9-1,3.8-2,5.8-3c0.4-0.2,0.9-0.9,1.3,0
	c0.3,0.7,0.9,1.5-0.2,2.1c-0.3,0.2-0.6,0.3-0.7,0.7c-1.9,0.5-3.5,1.5-5.3,2.2c-0.7,0.3-1.4,0.6-2.3,0.8
	C139.1,88.3,139,88.2,138.9,88.2z"/>
<path class="st15" d="M80.1,107.4c-2.5-1.4-4.7-2.8-6.9-4.6c-3.8-3.1-5.7-7-5.8-11.8c-0.1-2.8-0.3-5.5-0.3-8.3
	c0-0.9,0.4-1.5,1.2-1.7c1.2-0.4,2.4-0.7,3.7-0.8c3.1,0.4,3.7,2.8,4.6,5c-0.2,0.1-0.3,0.1-0.3,0.1c-1.8-2.3-4.2-1.1-6.4-0.9
	c-0.7,0.1-0.9,1-1,1.6c-0.2,1.2-0.4,2.4-0.2,3.9c0.6-1.5,0.7-3,1.9-4.4c0,1.2,0,2.1,0,3.2c0.8-0.6,0.8-1.3,1-1.8
	c0.6-1.7,2.4-2.2,3.8-1.1c0.9,0.7,1.9,1.3,2.3,2.5c0.1,0.3,0.3,0.8-0.4,0.9c-0.3,0.6-0.9,0.6-1.4,0.9c-0.7,0.4-0.9,0.9-0.2,1.5
	c0.4,0.4,0.8,0.7,0.4,1.4c-1.2,1.3-1.3,3.1-0.3,4.4c0.5,0.6,1,1.3,1.7,1.6c1.1,0.6,1.4,1.5,1.6,2.5C79.5,103.4,80,105.4,80.1,107.4z
	"/>
<path class="st16" d="M110,40.8c-7.3,1.8-14.2,4.7-20.8,8.2c-1,0.5-1.6,0.6-2.2-0.5c-0.5-1-1.4-1.7-2.2-2.6c3.8-1.6,6.8-4.2,9.6-7.1
	c1.6-1.7,3.3-3.2,5.3-4.4c1.6-0.9,3.3-1.2,5.1-0.7c2.8,0.7,5,2.5,7.1,4.4c-3.3-2.4-6.8-3.7-10.7-1.8c1.3,0,2.5-0.3,3.8,0.1
	c2.1,0.7,3.9,1.7,5.3,3.3C110.6,40.3,110.6,40.5,110,40.8z"/>
<path class="st17" d="M118.8,142.7c-2,0.1-3.5-1.1-5.2-2.2c-6.6-5-12.4-10.7-17.9-16.8c-1.9-2-3.6-4.2-4.2-7
	c-0.2-1.1-0.1-2.1-0.1-3.3c0.1-0.2,0.2-0.2,0.4-0.2c3.2,7.8,8.9,13.7,14.9,19.3c3.3,3.1,6.5,6.2,10.2,8.9
	C117.5,141.9,118.1,142.2,118.8,142.7z"/>
<path class="st18" d="M151.7,75.7c0.1,0.4,0.2,0.7,0.2,0.9c0.1,0.4,0,0.6-0.5,0.4c-1.2-0.4-2.4-0.6-3.6-0.7c-0.4,0-0.7-0.2-0.8-0.7
	c-0.4-4.8-0.9-9.6-1.6-14.5c1.6,1.4,3.4,2.6,4,4.8C150.4,69.2,151.1,72.4,151.7,75.7z"/>
<path class="st18" d="M162.2,112.4c1.7-0.2,3,0.3,3.9,1.8c0.7,1.3,0.7,2.5,0,3.7c-0.7,1.2-2.4,2.1-3.5,1.8c-1.9-0.3-3.1-1.5-3.4-3.4
	c-0.2-1.3,0.6-2.9,1.9-3.6C161.4,112.6,161.8,112.5,162.2,112.4z"/>
<path class="st19" d="M68.4,53.9c-0.4,0.1-0.7,0.2-1.1,0c2.5-4.5,5.3-8.8,8.9-12.5c0.4-0.4,2-0.1,2.2,0.4c0.1,0.3-0.2,0.4-0.3,0.6
	C74.1,45.6,71.4,49.8,68.4,53.9z"/>
<path class="st20" d="M141.6,45.4c0.6-0.1,0.6,0.5,0.8,0.8c1.5,2.8,2.7,5.7,3.7,8.7c0.1,0.2,0.2,0.4,0.4,0.7c0.3,1.6,1,2.9,1.3,4.4
	c0.1,0.3,0.5,0.6,0.1,0.9c-0.4,0.2-0.5-0.3-0.8-0.4c-1.9-0.9-2.3-2.7-2.7-4.5C143.5,52.4,142.6,49,141.6,45.4z"/>
<path class="st21" d="M145,94.7c0.3,1.3-0.6,2.4-0.1,3.8c-1.1-0.3-2.1-0.6-3.1-0.9c-0.5-0.2-1.1-0.4-1.4-0.8c-0.5-0.6-1-1.4-0.7-2
	c0.4-1,1.5-1.4,2.6-1.7c0.3-0.1,0.6,0,1,0C144.4,93,144.7,93.8,145,94.7z"/>
<path class="st22" d="M41.7,78.5c0.5,2-0.2,3.5-1.7,3.7c-1.4,0.2-2.6-0.6-3-1.8c-0.4-1.2,0.2-2.5,1.3-3
	C39.6,76.8,40.8,77.1,41.7,78.5z"/>
<path class="st23" d="M86.2,95.6c0-0.2,0-0.3,0-0.5c0.4-4.4,1.9-8.3,3.5-12.3c0.2-0.5,0.4-1.1,1.1-1.4c0.1-0.1,0.1-0.1,0-0.1
	c0,0,0.1,0,0.2-0.1c0.4-0.2,0.7-0.3,1.2-0.4c0.6,0.1,0.6,0.2,0.4,0.7c-2.2,4-3.9,8.2-5.3,12.5c-0.3,1-0.3,2.2-1.1,3.1
	C86.2,96.8,86.2,96.2,86.2,95.6z"/>
<path class="st24" d="M102.4,118.4c1.1-0.1,1,0.7,1.1,1.4c0,0.6,0,1.2,0.9,1.3c0.6,0.1,0.6,0.5,0.3,1c-0.2,0.3-0.3,0.7,0.1,0.8
	c0.5,0.2,0.6-0.2,0.7-0.6c0.1-0.5-0.4-1,0.1-1.6c1.2,3.2,2.3,6.4,3.4,9.7C105.6,127.1,103.8,122.9,102.4,118.4z"/>
<path class="st25" d="M128.3,111c-0.3-0.2-0.6-0.3-0.8-0.6c-0.3-0.3-0.8-0.7-0.5-1.1c0.4-0.5,0.6,0.2,0.9,0.4
	c0.6,0.4,1.3,0.7,2.1,0.6c0.9,0,1.7-0.1,2.6,0.1c1.7,0.3,3.3,0.9,4.3,2.4c0.2,0.3,0.6,0.6,0.9,0.9c-0.4,0.5-0.9,0.4-1.1,0
	c-1-2-2.9-1.9-4.6-2.1c-1.2-0.1-2.3-0.3-3.6-0.5c-0.1,0-0.1,0-0.1,0C128.4,111.1,128.4,111.1,128.3,111z"/>
<path class="st26" d="M60,77c-0.3,0.5-0.8,1-1.2,1.6c-1.8-0.4-2.3-2-2.6-3.5c-0.3-1.4-0.3-2.9,0.6-4.3c0.5,0.1,0.5,0.4,0.4,0.9
	C57,71.8,57,71.8,57,71.8c-0.2,0.2-0.1,0.4-0.1,0.7c0,0.2,0,0.3,0,0.5c-0.1,0.2-0.1,0.3,0,0.5C57.1,75.4,58.4,76.3,60,77z"/>
<path class="st27" d="M76.1,93.1c0-0.5-0.1-0.8-0.5-1.2c-1.1-0.9-1-1.4,0.2-2.1c0.4-0.2,0.8-0.3,1.3-0.5c0.6,0.1,0.6,0.4,0.6,0.8
	c-0.1,0.9-0.1,1.7-0.3,2.5C77.3,93.5,76.8,93.4,76.1,93.1z"/>
<path class="st28" d="M147.6,26.3c0.2,1.2-0.3,2-1.1,1.9c-0.8,0-1.2-0.6-1.3-1.4c0-0.5,0.2-0.9,0.7-1.1
	C146.7,25.4,147.1,25.7,147.6,26.3z"/>
<path class="st29" d="M94.8,88.1c0.8,0.6,1-0.7,1.7-0.4c-1.2,1.4-2.4,2.8-3.9,4.4c0.4-1.8,1.1-3.2,1.7-4.6
	C94.6,87.6,94.6,87.9,94.8,88.1z"/>
<path class="st10" d="M160.3,171.3c-1.9-1.8-3.2-4-4.7-6.1c2.2,1.4,3.7,3.5,4.8,5.8C160.4,171.2,160.3,171.2,160.3,171.3z"/>
<path class="st29" d="M96.1,85.1c-0.3,0.8-0.5,1.5-1.5,1.8c0.6-2,1.7-3.8,2.8-5.6c0.6,0.2,0.6,0.6,0.6,1.1c-0.2,0.4-0.3,0.8-0.7,1
	c-0.1,0.2-0.1,0.3-0.1,0.5C96.9,84.2,96.8,84.9,96.1,85.1z"/>
<path class="st28" d="M177.1,134.8c-0.9,0-1.3-0.4-1.3-1.2c0-0.6,0.5-1,1.1-1c0.7-0.1,1,0.3,1.2,0.8
	C178.3,134.2,177.8,134.6,177.1,134.8z"/>
<path class="st30" d="M143,99.3c0.1,0.4,0.1,0.7-0.5,0.6c-0.4-0.1-0.8-0.1-1.2-0.1c0.1,0.6,0.8,0.4,1,0.9c-1,0-1.9-0.2-2.5-1.2
	c-0.1-0.2-0.4-0.5-0.2-0.8c0.2-0.4,0.5,0,0.8,0.1C141.2,99,142,99.3,143,99.3z"/>
<path class="st28" d="M33.9,80.2c0.7,0.3,1,0.7,0.7,1.4c-0.3,0.5-0.7,0.6-1.3,0.5c-0.5-0.1-0.8-0.4-0.8-1
	C32.6,80.4,33.1,80.2,33.9,80.2z"/>
<path class="st31" d="M145.1,94.8c-0.6-0.6-0.9-1.3-1.7-1.7c-0.4-0.4-0.9-0.1-1.3-0.5c0.8-0.8,1.6-0.4,2.2,0
	C145,93,145.8,93.7,145.1,94.8z"/>
<path class="st9" d="M128.1,38.7c-0.7,0.4-1.6,0.2-2.4,0.2c-2.1-0.1-4.1,0.2-6.3,0.1c0.1-0.1,0.3-0.1,0.6-0.2
	C122.7,38.6,125.4,38.6,128.1,38.7z"/>
<path class="st32" d="M161,144.8c0.2,0.6,0.1,1-0.5,1.1c-0.4,0.1-0.7,0-1-0.3c-0.2-0.3-0.2-0.7,0-0.9
	C160,144.4,160.5,144.3,161,144.8z"/>
<path class="st33" d="M42.6,97.3c-0.3-0.7-0.2-1.2,0.5-1.3c0.5-0.1,0.8,0.2,0.8,0.7C43.8,97.5,43.4,97.7,42.6,97.3z"/>
<path class="st11" d="M90,56.5c-0.3-0.8-0.5-1.5-0.5-2.6c0.8,0.8,0.7,1.7,0.9,2.5C90.3,56.5,90.2,56.5,90,56.5z"/>
<path class="st34" d="M57.1,71.8c-0.1-0.2-0.2-0.5-0.3-0.9c0.2-0.7,0.7-1.2,1.2-1.7c0.1-0.1,0.2-0.2,0.4-0.1
	c-0.3,0.6-0.6,1.1-0.9,1.7c-0.1,0.1-0.1,0.2-0.2,0.3C57.2,71.3,57.2,71.5,57.1,71.8z"/>
<path class="st33" d="M185.7,134.5c0.7-0.1,0.9,0.2,0.8,0.8c-0.1,0.3-0.4,0.4-0.7,0.3C185.2,135.3,185.1,135,185.7,134.5z"/>
<path class="st33" d="M20.3,138.1c0.2-0.6,0.6-0.7,0.9-0.3c0.2,0.2,0.2,0.5,0,0.7C20.9,138.7,20.6,138.7,20.3,138.1z"/>
<path class="st35" d="M168,127.2c0.4,0.3,0.6,0.6,0.2,0.9c-0.2,0.2-0.5,0.1-0.6-0.1C167.3,127.6,167.5,127.3,168,127.2z"/>
<path class="st33" d="M161.9,53.5c-0.4-0.4-0.4-0.8,0.1-1c0.2-0.1,0.5,0,0.6,0.3C162.7,53.3,162.6,53.6,161.9,53.5z"/>
<path class="st33" d="M30.6,97.5c-0.5-0.3-0.5-0.7-0.1-1c0.2-0.2,0.5-0.1,0.6,0.2C31.3,97.2,31.1,97.5,30.6,97.5z"/>
<path class="st35" d="M167.6,111.6c0.1-0.5,0.3-0.7,0.8-0.5c0.2,0.1,0.3,0.4,0.1,0.6C168.1,112.1,167.8,112,167.6,111.6z"/>
<path class="st36" d="M98.5,79.6c0.1-0.1,0.1-0.1,0.2-0.1c0.5,0.2,0.6,0.6,0.4,1.1c-0.4,0-0.7,0-1-0.1C98,80.1,98.3,79.9,98.5,79.6z
	"/>
<path class="st33" d="M31.2,105c0.5,0.3,0.5,0.6,0.1,0.9c-0.2,0.1-0.4,0.1-0.5-0.1C30.6,105.4,30.7,105.1,31.2,105z"/>
<path class="st33" d="M164.3,58.9c0,0.6-0.2,0.8-0.7,0.6c-0.2-0.1-0.3-0.3-0.2-0.5C163.6,58.6,163.9,58.6,164.3,58.9z"/>
<path class="st35" d="M38.2,99.4c0.5,0,0.6,0.2,0.5,0.6c0,0.1-0.3,0.2-0.4,0.2C37.8,100,37.8,99.7,38.2,99.4z"/>
<path class="st35" d="M28.2,114.4c-0.5,0-0.7-0.2-0.5-0.6c0.1-0.2,0.3-0.3,0.5-0.2C28.6,113.8,28.6,114.1,28.2,114.4z"/>
<path class="st11" d="M141,45.6c-0.3-0.5-0.5-1.1-0.5-1.9c0.4,0.2,0.5,0.6,0.6,1.1c0.2,0.1,0.2,0.2,0.2,0.5
	C141.3,45.4,141.2,45.5,141,45.6z"/>
<path class="st10" d="M152.5,168.6c-0.3-0.4-0.8-0.6-0.9-1.2c0.8,0.1,1,0.8,1.3,1.3C152.9,168.9,152.7,168.7,152.5,168.6z"/>
<path class="st11" d="M33.7,110.5c0.4-0.1,0.7-0.2,0.8,0.2c0,0.2-0.2,0.4-0.4,0.4C33.7,111.1,33.5,111,33.7,110.5z"/>
<path class="st35" d="M58.5,69c-0.1,0.1-0.2,0.1-0.4,0.1c0.1-0.4,0.4-0.7,0.9-0.9C59.1,68.6,58.7,68.7,58.5,69z"/>
<path class="st30" d="M142.9,100.8c0.2-0.3,0.6-0.4,0.7-0.1c0.1,0.3-0.3,0.3-0.7,0.4C142.9,100.9,142.9,100.9,142.9,100.8z"/>
<path class="st30" d="M91.8,113.3c-0.1,0.1-0.2,0.1-0.3,0.1c-0.1-0.2-0.1-0.5-0.1-0.9C91.6,112.8,91.7,113,91.8,113.3z"/>
<path class="st34" d="M57,72.4c-0.2-0.1-0.3-0.3,0-0.6C57,72,57,72.2,57,72.4z"/>
<path class="st34" d="M57,73.4c-0.2,0-0.2-0.1-0.1-0.4C57,73.2,57,73.3,57,73.4z"/>
<path class="st29" d="M94.5,86.9c0.1,0.1,0.1,0.2,0.1,0.4c0,0.1-0.1,0.1-0.2,0.1c-0.1,0-0.1,0-0.1-0.1
	C94.4,87.2,94.4,87.1,94.5,86.9z"/>
<path class="st24" d="M102,117.1c0.1,0,0.1,0.2,0.2,0.4C102.2,117.5,102.1,117.3,102,117.1z"/>
<path class="st20" d="M141.4,45.3c-0.1-0.1-0.1-0.2-0.1-0.4c0.1,0,0.2,0.2,0.3,0.3C141.6,45.3,141.5,45.4,141.4,45.3z"/>
<path class="st26" d="M57.3,71.1c0-0.1,0-0.1,0.1-0.2C57.5,70.9,57.5,71,57.3,71.1z"/>
<path class="st30" d="M144,99.4c0,0-0.1,0-0.3,0C143.8,99.4,143.9,99.4,144,99.4z"/>
<path class="st29" d="M144.7,99.7c-0.1,0-0.1,0-0.1-0.1C144.6,99.5,144.7,99.6,144.7,99.7z"/>
<path class="st3" d="M80.6,138.9C80.6,138.9,80.6,139,80.6,138.9C80.6,139,80.6,138.9,80.6,138.9z"/>
<path class="st24" d="M104.1,115.3C104.1,115.3,104,115.2,104.1,115.3C104,115.2,104.1,115.2,104.1,115.3z"/>
<path class="st24" d="M104.4,116.2c-0.1,0-0.1,0-0.2-0.1C104.3,116.1,104.4,116.1,104.4,116.2z"/>
<path class="st24" d="M105.4,119.5c-0.1,0-0.1,0-0.1-0.1C105.3,119.3,105.4,119.3,105.4,119.5z"/>
<path class="st24" d="M105.6,120.4c-0.1,0-0.1-0.1-0.1-0.3C105.5,120.1,105.6,120.2,105.6,120.4z"/>
<path class="st16" d="M112.3,38.6C112.2,38.5,112.3,38.5,112.3,38.6C112.3,38.5,112.3,38.6,112.3,38.6z"/>
<path class="st37" d="M57.2,112.5c-0.8-3.2-0.2-6.2,1-9.1c1.3-3.3,3.4-6.3,5.1-9.7c0.4,1.7-0.2,2.9-0.5,4.1
	c-0.5,2.2-1.6,4.2-2.1,6.4c-0.4,1.8-0.7,3.6-0.7,5.5c0,3.9,0.2,7.8-0.7,11.6c-1.1,4.9-3.1,9.3-6.6,13c-0.9,1-2,1.8-3.3,2.2
	c-0.3,0.1-0.6,0.4-0.8,0.1c-0.2-0.3,0.1-0.5,0.3-0.7c1.1-1.1,2.1-2.3,3.2-3.4c2.8-3,5-6.3,5.6-10.4c0.3-1.9,0.2-3.9,0-5.9
	C57.6,115,57.4,113.8,57.2,112.5z"/>
<path class="st37" d="M58.5,138.3c-1,0-0.8-0.3-0.4-0.8c2.6-2.8,4.2-6.1,5.1-9.8c0.3-1.3,0.5-2.6,0.4-4.2c0.9,1.4,1.2,2.7,1.3,4
	c0.3,2.4,0.4,4.8-0.7,7.1c-1,2.1-2.6,3-4.7,3.5C59.3,138.1,59,138.2,58.5,138.3z"/>
<path class="st32" d="M85.4,11.5c0,0.7-0.4,1-1,0.9c-0.4-0.1-0.8-0.4-0.8-0.8c0-0.5,0.3-0.9,0.8-1C85,10.5,85.3,10.8,85.4,11.5z"/>
<path class="st38" d="M136.1,39.8c-1.3-0.2-2.7-0.4-4.1-0.7c0.4-0.8-0.2-1.3-0.5-1.8c-1.5-2.4-3.7-4.2-5.7-6.1
	c-0.4-0.3-0.7-0.7-0.9-1.2C129.4,32.2,133.8,34.7,136.1,39.8z"/>
<path class="st39" d="M89.9,32.7c1.9-0.9,3.6-1.8,5.3-2.8c-4.3,4.5-9.7,6.5-15.7,7.3C82.9,35.8,86.4,34.3,89.9,32.7z"/>
<path class="st9" d="M131,39.1c-0.6,0-1.3,0.2-2-0.1C129.6,38.9,130.3,39,131,39.1z"/>
<path class="st39" d="M95.7,29.6C95.7,29.6,95.7,29.6,95.7,29.6C95.7,29.6,95.7,29.7,95.7,29.6z"/>
<path class="st11" d="M140.6,43.5c-0.1,0-0.1-0.1-0.2-0.2C140.5,43.3,140.5,43.4,140.6,43.5z"/>
<path class="st40" d="M129.9,85.3c0.2,0.2,0.3,0.3,0.4,0.4c1.9,0.9,2.5,2.4,1.9,4.5c-1.4-0.5-2.7-1.2-4-2c-2.7-1.6-5.5-3.1-8.2-4.7
	c-1.5-0.9-3.1-0.9-4.7-0.4c-1.5,0.5-2.9,1-4.4,1.5c-0.3,0.1-0.5,0.3-0.9,0c2.4-1.8,4.7-3.7,7.6-4.8c0.4-0.3,0.8-0.3,1.3-0.3
	c1.8-0.1,3,1,4.5,1.8c1.8,1,3.5,2,5.1,3C129.1,84.5,129.6,84.7,129.9,85.3z"/>
<path class="st41" d="M121.4,93.2c2,0.2,3.8,0.4,5.6-0.4c-1.3-3.3-4.9-5.2-8.4-4.6c-2.2,0.4-4.2,1.5-6.4,2c-1.1,0.3-2.2,0.3-3.3-0.2
	c3.7,0.1,6.7-2,10.2-2.5c3.3-0.5,6.1,0.5,8,3.3c0.4,0.6,0.8,1.2,1.2,1.9c0.3,0.5,0.7,0.8,1.3,0.8c0.5,0.1,1,0,1.3-0.3
	c0.3-0.4-0.1-0.8-0.4-1.2c-0.3-0.4-0.5-0.8-1-1.5c1.5,0.4,2.4,1,3.2,2c0.1,0.1,0.2,0.4,0.1,0.4c-1.1,1,0,2.2-0.4,3.2
	c-0.3,0.1-0.5-0.2-0.7-0.4c-1.2-1.2-2.5-1.2-3.9-0.1c-1.8,1.5-3.9,2.3-6.2,2.5c1.3-0.5,2.7-0.9,3.9-1.6c0.7-0.4,1.4-0.8,1.9-1.3
	c0.2-0.2,0.7-0.3,0.3-0.8c-0.2-0.3-0.5-0.4-0.9-0.3c-1.3,0.2-2.6,0.3-3.9,0.4c-2.2,0.2-4.1-0.5-5.9-1.5c-1.6-0.9-3.2-0.9-4.9-1.1
	c1.1-0.6,2.3-1,3.6-0.7c0.8,0.2,1.6,0.5,2.4,0.9C119.2,92.8,120.2,93,121.4,93.2z"/>
<path class="st42" d="M125.7,123.5c3.6,1.1,7,2.2,10.8,0.7c-0.1,1.5-1,2.6-1.8,3.8c-0.2,0.4-0.6,0.3-1,0.2c-1-0.1-2.1-0.1-3.1-0.1
	c-0.7,0-1.6,0.3-1.4-1c0-0.3-0.4-0.4-0.7-0.6c-2.1-1.4-4.2-2.7-6.1-4.3C123.4,122.7,124.5,123.1,125.7,123.5z"/>
<path class="st43" d="M114.8,115.4c2.9,1.6,6.1,2.1,9.3,2.4c2.4,0.2,4.8,0.4,7,1.7c1.6,1,3.3,0.9,5,0.6c0.9-0.1,1.7-0.1,2.6-0.1
	c0.2,0,0.4-0.1,0.5,0.2c0.1,0.3-0.2,0.5-0.4,0.5c-0.7,0.2-1.5,0.5-2.3,0.5c-4,0.4-7.7-0.6-11.5-1.6c-3.6-1-7.1-2.3-10.6-3.8
	C114.4,115.7,114.5,115.6,114.8,115.4z"/>
<path class="st43" d="M122.9,107c-3.1,1.7-6.2,3-9.6,3.9c-1.9,0.5-3.4,1.6-4.3,3.4c0.3-1.3,0.5-2.6,1.8-3.3c4.6-2.3,9.5-4,14.5-5.4
	C124.5,106,123.7,106.5,122.9,107z"/>
<path class="st1" d="M108.4,78.4c2-0.2,3.9-0.2,5.9,0c0.2,0.1,0.3,0.1,0.5,0.1c0.3,0,0.5,0,0.7,0c0.2,0.2,0.3,0.4,0.2,0.6
	c-0.7,0.7-1.6,1-2.3,1.5c-0.9,0.5-1.8,1-2.8,1.1c-0.4,0.1-0.9,0.4-1.2-0.1c-0.3-0.5,0.3-0.7,0.7-0.9c0.2-0.1,0.4,0,0.5-0.5
	c-0.8,0-1.6,0-2.5,0C107.8,79.5,108.4,79.1,108.4,78.4z"/>
<path class="st36" d="M130,85.3c-2.1-1.2-4.2-2.4-6.4-3.7c0.2-0.4,0.7-0.7-0.2-0.9c-0.5-0.1-1.2-0.1-1.2-1c3.5,0.6,6.4,2.4,9.4,4.3
	C130.8,83.9,130.3,84.5,130,85.3z"/>
<path class="st1" d="M99.2,80.7c-0.1-0.4-0.1-0.7-0.3-1.1c0-0.1,0.1-0.1,0.1-0.1c0.1,0,0.1-0.1,0.2-0.1c1-0.1,1.9-0.3,3-0.4
	c0.3,0.1,0.5,0.1,0.8-0.1c0.4-0.1,0.7-0.1,1.2-0.1c0.8,0.7,1.9,0.5,2.6,1.4c-1.3,0.8-2.7,1-4,0.8C101.6,80.7,100.4,80.8,99.2,80.7z"
	/>
<path class="st36" d="M106.8,80.2c-0.8-0.7-2-0.3-2.6-1.4c1.3-0.4,2.7-0.4,4.1-0.5c0.1,0.6,0.5,1.4-0.4,1.8
	C107.6,80.2,107.3,80.2,106.8,80.2z"/>
<path class="st23" d="M114.8,115.3c0.1,0.3,0,0.5-0.4,0.5c-0.8-0.2-1.6-0.6-2.4-0.7c-1.3-0.1-0.8-0.7-0.4-1.2
	c0.3-0.4,0.8-0.7,1.4-0.8c0.3-0.1,0.7-0.1,0.6,0.4C113.5,114.5,114.1,114.8,114.8,115.3z"/>
<path class="st36" d="M132.4,84.5c1.7,0.7,3.2,2,4.9,3c-1,0.2-1.7-0.4-2.4-0.9c-0.7-0.5-1.4-1-2.3-0.4c-0.2,0.1-0.4,0.1-0.6,0
	c-0.2-0.2-0.2-0.3-0.1-0.6C132.2,85.3,132.3,84.9,132.4,84.5z"/>
<path class="st44" d="M108.2,94.1c-1.4,0.2-2.7,0.7-4.3,0.1c2.1-0.2,3.9-0.4,5.7-0.6c0,0.1,0,0.1,0,0.2
	C109.1,93.8,108.7,93.9,108.2,94.1z"/>
<path class="st36" d="M115.7,79.2c-0.1-0.2-0.1-0.3-0.1-0.6c1,0,2,0.1,3.1,0.3c-0.1,0.4,0,0.4,0.5,0.6c-0.4,0.1-0.8,0.1-1.3,0.2
	c-0.2-0.5-0.5-0.6-0.8-0.4C116.6,79.5,116.2,79.2,115.7,79.2z"/>
<path class="st45" d="M107.4,92.3c-0.2,0-0.4,0-0.4-0.1c-0.1-0.3,0.2-0.3,0.3-0.3c1.1,0,2.3,0,3.8,0
	C109.7,92.6,108.6,92.2,107.4,92.3z"/>
<path class="st36" d="M96.2,85.2c0.3-0.4,0.4-1,1.1-1.2C97.2,84.5,97.1,85.1,96.2,85.2z"/>
<path class="st36" d="M97.4,83.4c0.2-0.3,0-0.8,0.6-1C98.4,83.1,98.1,83.3,97.4,83.4z"/>
<path class="st36" d="M94.4,87.5c0-0.1,0.1-0.1,0.2-0.1c0.3,0.1,0.3,0.3,0.3,0.7C94.5,88.1,94.3,87.9,94.4,87.5z"/>
<path class="st36" d="M137.6,87.9c0.1,0,0.3,0,0.4,0.2C137.9,88.4,137.7,88.3,137.6,87.9z"/>
<path class="st36" d="M138.9,88.3c0,0,0.1-0.1,0.1,0C139.1,88.3,139,88.3,138.9,88.3C139,88.3,138.9,88.3,138.9,88.3z"/>
<path class="st2" d="M128.3,111.1c0.1-0.1,0.1-0.1,0.2,0C128.4,111.1,128.4,111.1,128.3,111.1z"/>
<path class="st46" d="M90.8,81.4c-2.1,4.3-3.5,8.8-4.5,13.6c-0.2-2.6,0.3-5.3,0.6-8c0.1-0.9,0.1-1.7,0.2-2.6
	c0.1-1.4,0.9-1.9,1.9-2.4C89.5,81.8,90.1,81.6,90.8,81.4z"/>
<path class="st12" d="M119.4,79.6c-0.1-0.4-1,0.2-0.6-0.6c0.3,0,0.6,0,0.9,0c0.1,0,0.2,0.1,0.3,0.1c0.1,0,0.2,0,0.2,0
	c0.1,0.1,0.3,0.2,0.5,0.1c0.2,0,0.3,0,0.5,0c0.1,0,0.2,0.1,0.3,0.1c0.2,0.1,0.4,0.1,0.7,0.1c0.2,0.9,1,0.6,1.5,0.9
	c0.3,0.2,0.9,0,0.9,0.4c0,0.5-0.6,0.4-1,0.6C122.2,80.9,121.1,79.7,119.4,79.6z"/>
<path class="st36" d="M102.9,78.8c0.1,0.2,0.1,0.5-0.2,0.6c-0.2,0.1-0.4-0.1-0.5-0.4C102.4,78.8,102.6,78.7,102.9,78.8z"/>
<path class="st36" d="M114.8,78.4c-0.1,0.3-0.3,0.3-0.4,0C114.5,78.4,114.6,78.4,114.8,78.4z"/>
<path class="st36" d="M120.7,79.2c0,0.2-0.2,0.2-0.4,0C120.4,79.2,120.5,79.2,120.7,79.2z"/>
<path class="st36" d="M99.2,79.3c0,0.1,0,0.1-0.1,0.1C99.1,79.4,99.1,79.4,99.2,79.3z"/>
<path class="st46" d="M91,81.3c0,0.1,0,0.1-0.2,0.1C90.8,81.3,90.9,81.3,91,81.3z"/>
<path class="st36" d="M121.6,79.4c0,0.1-0.1,0-0.2-0.1C121.4,79.3,121.5,79.3,121.6,79.4z"/>
<path class="st36" d="M120.1,79.1c0,0.1-0.1,0-0.2-0.1C119.9,79,120,79,120.1,79.1z"/>
<path class="st41" d="M72,97.9c-1.3-1.5-1.7-3.3-1.6-5.2c0.4,1.7,1,3.3,1.7,4.9C72.1,97.8,72.1,97.8,72,97.9z"/>
<path class="st41" d="M72.1,97.8c0.2,0.2,0.3,0.4,0.4,0.6c-0.3,0.2-0.4-0.2-0.6-0.4C72,97.9,72,97.9,72.1,97.8z"/>
</svg>
